<svg width="593" height="412" viewBox="0 0 593 412" fill="none" xmlns="http://www.w3.org/2000/svg">
    <path style="mix-blend-mode:multiply" d="M456.439 196.11C419.448 174.787 370.274 164.963 321.983 166.401H292.976V178.801C278.608 183.324 265.036 189.084 252.922 196.11C184.091 236.098 184.473 300.881 253.759 340.859C265.689 347.748 278.948 353.36 292.976 357.852V370.789H337.082C380.774 370.068 424.033 360.167 457.267 340.896C526.126 300.881 525.776 236.098 456.439 196.11Z" fill="url(#paint0_linear_1361_3042)"/>
    <path d="M175.767 340.887C140.887 320.767 123.446 294.391 123.525 268.016L123.681 250.863C123.612 277.247 141.02 303.636 175.904 323.784C245.246 363.739 357.258 363.739 426.122 323.784C460.339 303.903 477.471 277.941 477.554 251.905L477.393 269.04C477.324 295.062 460.197 321.028 425.988 340.91C357.12 380.879 245.09 380.879 175.767 340.887Z" fill="#BCB1FF"/>
    <path d="M175.904 323.784C106.6 283.829 106.218 219.013 175.072 179.058C243.926 139.102 356.007 139.102 425.312 179.058C494.617 219.013 494.994 283.801 426.122 323.784C357.249 363.767 245.26 363.74 175.904 323.784Z" fill="#F5F5FA"/>
    <path style="mix-blend-mode:multiply" d="M259.765 303.118C256.799 301.405 252.867 300.619 248.976 300.734H242.9V301.74C241.78 302.08 240.7 302.542 239.681 303.118C234.162 306.332 234.19 311.522 239.75 314.732C240.747 315.301 241.801 315.763 242.896 316.11V317.148H250.185C253.69 317.088 257.162 316.294 259.844 314.746C265.358 311.531 265.33 306.332 259.765 303.118Z" fill="url(#paint1_linear_1361_3042)"/>
    <path d="M233.495 314.746C230.694 313.134 229.296 311.017 229.305 308.899V304.077C229.305 306.194 230.685 308.312 233.495 309.928C239.06 313.143 248.051 313.143 253.575 309.928C256.334 308.334 257.714 306.254 257.714 304.16V308.982C257.714 311.067 256.334 313.152 253.575 314.746C248.047 317.956 239.06 317.956 233.495 314.746Z" fill="url(#paint2_linear_1361_3042)"/>
    <path d="M233.504 309.928C227.944 306.713 227.912 301.519 233.44 298.313C238.968 295.108 247.959 295.099 253.52 298.313C259.08 301.528 259.112 306.718 253.584 309.928C248.056 313.138 239.069 313.134 233.504 309.928Z" fill="white"/>
    <path d="M250.797 303.458L240.293 303.99L240.619 301.634H237.717L236.926 305.933L250.797 305.134V303.458Z" fill="#BCB1FF"/>
    <path d="M486.027 52.7694C485.943 51.2503 485.503 49.7721 484.743 48.4536C483.983 47.1351 482.924 46.013 481.651 45.1775L415.395 6.98073C412.982 5.58846 411.019 6.73099 411.019 9.51552V67.0978C411.103 68.6168 411.543 70.0948 412.303 71.4132C413.064 72.7317 414.122 73.8539 415.395 74.6897L481.638 112.88C484.052 114.272 486.015 113.136 486.015 110.352L486.027 52.7694Z" fill="url(#paint3_linear_1361_3042)"/>
    <path style="mix-blend-mode:screen" d="M476.83 65.1872C471.203 61.9469 466.576 84.4354 460.574 80.9891C454.841 77.6864 454.947 61.8158 449.089 58.4382C444.712 55.9408 444.087 63.1706 439.71 60.6421C434.252 57.4767 432.314 34.3763 427.425 31.5294C422.792 28.8572 422.06 37.1484 418.884 35.2754C414.376 32.6782 416.933 17.3632 411 13.9419V19.3923C416.933 22.8074 414.376 38.1223 418.884 40.7258C422.06 42.5551 422.792 34.2827 427.425 36.9798C432.301 39.7893 434.252 62.9209 439.742 66.0863C444.118 68.621 444.743 61.3663 449.12 63.8886C454.972 67.26 454.872 83.1306 460.605 86.4395C466.583 89.8859 471.234 67.3911 476.861 70.6314C480.025 72.4545 483.683 84.1295 486.058 90.5289V85.1347C483.651 78.704 479.994 67.0103 476.83 65.1872Z" fill="url(#paint4_linear_1361_3042)"/>
    <g style="mix-blend-mode:screen">
        <path d="M448.382 89.7299L449.845 90.5728V58.8629L448.382 58.02V89.7299Z" fill="#FFD03E"/>
    </g>
    <path d="M451.171 59.6244C451.13 58.9128 450.923 58.2206 450.566 57.6036C450.209 56.9865 449.711 56.4619 449.114 56.072C447.982 55.4164 447.057 55.9471 447.057 57.2582C447.097 57.9698 447.304 58.662 447.662 59.2791C448.019 59.8961 448.516 60.4207 449.114 60.8107C450.246 61.4662 451.171 60.9355 451.171 59.6244Z" fill="white"/>
    <path d="M470.847 46.3827L479.075 51.1277V47.9436L470.847 43.1924V46.3827Z" fill="#7139FF"/>
    <path d="M471.622 50.9532L479.075 55.2549V53.2133L471.622 48.9116V50.9532Z" fill="#7139FF"/>
    <path d="M486.027 110.352V52.7694C485.943 51.2503 485.503 49.7721 484.743 48.4536C483.983 47.1351 482.924 46.013 481.651 45.1775L415.395 6.98074C414.201 6.29397 413.113 6.22529 412.319 6.66857L414.62 5.34499C415.42 4.83303 416.546 4.87049 417.796 5.59471L484.07 43.7852C485.344 44.6207 486.403 45.7428 487.163 47.0614C487.923 48.3799 488.363 49.8581 488.447 51.3771V108.959C488.447 110.414 487.903 111.419 487.04 111.85L484.852 113.099C485.577 112.624 486.027 111.675 486.027 110.352Z" fill="#3B1992"/>
    <g style="mix-blend-mode:multiply">
        <path d="M330.579 208.841C287.806 211.922 241.314 218.196 243.599 219.519H330.579V208.841Z" fill="url(#paint5_linear_1361_3042)"/>
        <path d="M330.579 270.854H252.618C250.494 272.081 290.525 277.592 330.56 280.834L330.579 270.854Z" fill="url(#paint6_linear_1361_3042)"/>
        <path d="M434.52 270.106C432.123 270.565 428.154 270.855 421.978 270.855H333.136C335.109 271.994 386.187 276.825 434.52 280.099V270.106Z" fill="url(#paint7_linear_1361_3042)"/>
        <path d="M434.519 210.582C388.896 213.824 343.539 218.164 341.681 219.234H430.523C431.976 219.234 433.282 219.234 434.519 219.275V210.582Z" fill="url(#paint8_linear_1361_3042)"/>
    </g>
    <path d="M333.563 122.225V160.885C337.85 158.63 341.75 158.313 341.75 168.761V219.739C344.174 218.361 356.27 174.144 361.126 142.841C365.431 115.226 355.566 109.549 333.563 122.225Z" fill="url(#paint9_linear_1361_3042)"/>
    <path d="M251.827 122.225V160.885C247.541 158.63 243.641 158.313 243.641 168.761V219.739C241.217 218.361 229.121 174.144 224.265 142.841C219.964 115.226 229.843 109.549 251.827 122.225Z" fill="url(#paint10_linear_1361_3042)"/>
    <path d="M269.355 206.816C275.794 203.096 284.256 201.24 292.705 201.24C301.153 201.24 309.607 203.077 316.055 206.816C322.503 210.554 325.713 215.404 325.713 220.277C325.713 225.149 322.493 230.022 316.055 233.737C309.616 237.453 301.158 239.313 292.705 239.313C284.251 239.313 275.803 237.476 269.355 233.737C262.907 229.999 259.697 225.149 259.697 220.277C259.697 215.404 262.907 210.531 269.355 206.816Z" fill="url(#paint11_linear_1361_3042)"/>
    <path style="mix-blend-mode:multiply" d="M316.055 206.816C309.616 203.096 301.158 201.24 292.705 201.24C284.251 201.24 275.803 203.077 269.355 206.816C266.76 208.247 264.464 210.163 262.594 212.46C264.236 214.55 266.885 215.987 270.872 216.46C297.414 219.606 304.777 231.156 304.446 238.045C308.518 237.203 312.438 235.744 316.068 233.719C322.507 230.004 325.727 225.131 325.727 220.258C325.727 215.385 322.526 210.531 316.055 206.816Z" fill="url(#paint12_linear_1361_3042)"/>
    <path d="M351.762 134.299C346.901 80.8364 311.327 32.1549 292.705 11.2173C274.083 32.1549 238.49 80.8364 233.647 134.299C231.269 160.623 237.699 184.592 244.565 203.647C246.446 208.873 250.894 213.856 257.903 217.911C267.506 223.422 280.089 226.215 292.672 226.215C305.256 226.215 317.839 223.459 327.442 217.911C334.479 213.856 338.94 208.873 340.78 203.647C347.715 184.592 354.145 160.623 351.762 134.299Z" fill="url(#paint13_linear_1361_3042)"/>
    <path d="M292.705 11.2173C282.943 22.3192 274.085 34.1812 266.213 46.6904C265.23 48.2768 264.7 50.1018 264.682 51.9673C264.682 56.1007 267.418 60.234 272.887 63.3937C278.355 66.5534 285.534 68.1241 292.705 68.1241C299.875 68.1241 307.049 66.5488 312.522 63.3937C317.995 60.2386 320.727 56.1007 320.727 51.9673C320.71 50.1022 320.182 48.2772 319.2 46.6904C311.326 34.182 302.466 22.3201 292.705 11.2173Z" fill="url(#paint14_linear_1361_3042)"/>
    <path style="mix-blend-mode:multiply" d="M285.695 211.408C285.695 195.091 276.695 181.056 255.139 167.448C251.813 178.442 254.343 188.739 257.765 201.24C262.474 203.077 265.381 208.23 267.317 218.499C267.497 219.45 267.749 220.795 268.048 222.375C273.59 224.196 279.326 225.366 285.139 225.861C285.488 221.007 285.695 216.111 285.695 211.408Z" fill="url(#paint15_linear_1361_3042)"/>
    <path d="M330.27 167.448C324.963 177.639 323.238 189.492 324.292 202.42C328.573 205.107 332.782 209.419 332.782 219.872V270.85C335.205 272.228 347.301 241.999 352.158 216.29C356.43 193.612 351.551 180.955 330.27 167.448Z" fill="#FFA028"/>
    <path d="M337.385 177.639C342.904 183.095 351.486 191.164 350.13 207.761C348.626 226.214 340.108 258.082 333.89 270.221C337.74 265.72 347.821 239.216 352.149 216.299C356.431 193.616 351.551 180.936 330.271 167.452C330.013 167.939 330.804 171.112 337.385 177.639Z" fill="url(#paint16_linear_1361_3042)"/>
    <g style="mix-blend-mode:multiply">
        <path d="M334.603 226.228C341.598 215.408 346.432 211.679 343.705 184.436C343.456 181.988 344.592 179.154 346.312 181.037C342.596 176.334 337.344 171.939 330.27 167.452C324.963 177.643 323.238 189.497 324.292 202.425C328.573 205.111 332.782 209.424 332.782 219.877V225.181L334.603 226.228Z" fill="url(#paint17_linear_1361_3042)"/>
        <path d="M346.611 181.414C346.639 181.455 346.667 181.482 346.699 181.524L346.611 181.414Z" fill="url(#paint18_linear_1361_3042)"/>
    </g>
    <path d="M255.139 167.448C260.446 177.639 262.175 189.492 261.118 202.42C256.836 205.107 252.628 209.419 252.628 219.872V270.85C250.204 272.228 238.108 241.999 233.251 216.29C228.979 193.612 233.863 180.955 255.139 167.448Z" fill="#FF8F28"/>
    <path d="M248.019 177.639C242.5 183.095 233.923 191.164 235.275 207.761C236.779 226.214 245.297 258.082 251.519 270.221C247.665 265.72 237.588 239.216 233.256 216.299C228.974 193.616 233.858 180.936 255.134 167.452C255.378 167.939 254.628 171.112 248.019 177.639Z" fill="url(#paint19_linear_1361_3042)"/>
    <path style="mix-blend-mode:multiply" d="M283.998 123.41C284.459 108.742 275.187 96.548 263.288 96.1746C251.389 95.8012 241.368 107.39 240.906 122.058C240.445 136.727 249.717 148.92 261.616 149.294C273.515 149.667 283.536 138.079 283.998 123.41Z" fill="url(#paint20_linear_1361_3042)"/>
    <path d="M278.515 121.16C278.977 106.492 269.705 94.298 257.805 93.9246C245.906 93.5512 235.885 105.14 235.424 119.808C234.962 134.477 244.234 146.67 256.133 147.044C268.033 147.417 278.053 135.829 278.515 121.16Z" fill="white"/>
    <path d="M272.201 128.599C275.936 118.192 272.151 106.132 263.748 101.668C262.091 100.784 260.271 100.245 258.399 100.083C252.076 100.258 246.064 104.869 243.328 112.483C239.598 122.89 243.383 134.95 251.781 139.414C253.439 140.297 255.258 140.836 257.13 140.999C263.454 140.815 269.47 136.204 272.201 128.599Z" fill="#8F7DFB"/>
    <path d="M268.771 96.1707C266.335 94.8598 263.63 94.1274 260.865 94.0305L257.838 93.9341C260.604 94.0304 263.31 94.7645 265.744 96.0788C276.626 101.856 281.533 117.48 276.695 130.983C273.016 141.275 264.705 147.355 256.141 147.084L259.168 147.181C267.731 147.452 276.033 141.371 279.721 131.079C284.555 117.577 279.652 101.962 268.771 96.1707Z" fill="url(#paint21_linear_1361_3042)"/>
    <path d="M243.328 112.474C246.088 104.846 252.066 100.235 258.4 100.074C251.528 99.4681 244.735 104.208 241.778 112.438C238.044 122.849 241.833 134.909 250.231 139.369C252.348 140.507 254.727 141.071 257.13 141.004C255.258 140.841 253.439 140.302 251.781 139.419C243.383 134.941 239.598 122.881 243.328 112.474Z" fill="url(#paint22_linear_1361_3042)"/>
    <path style="mix-blend-mode:multiply" d="M253.203 140.053C254.033 140.387 254.894 140.639 255.773 140.806C256.218 140.89 256.666 140.951 257.116 140.99C257.379 140.99 257.641 140.958 257.903 140.935C256.295 140.713 254.738 140.211 253.304 139.451C244.901 134.992 241.116 122.918 244.846 112.52C247.467 105.209 253.124 100.685 259.135 100.162C258.901 100.13 258.676 100.088 258.432 100.065C258.188 100.042 257.907 100.088 257.645 100.111H257.291C256.96 100.148 256.629 100.203 256.302 100.263L256.063 100.3C255.654 100.382 255.249 100.479 254.844 100.598L254.72 100.644C254.368 100.751 254.018 100.871 253.672 101.002C253.529 101.057 253.396 101.122 253.258 101.181C253.009 101.287 252.761 101.393 252.517 101.512C252.361 101.59 252.209 101.677 252.057 101.76C251.906 101.843 251.597 101.994 251.404 102.118L250.944 102.426C250.742 102.555 250.54 102.688 250.342 102.83C250.144 102.972 250.024 103.064 249.882 103.184C249.739 103.303 249.5 103.478 249.316 103.643C249.132 103.808 249.003 103.909 248.856 104.047C248.709 104.185 248.498 104.373 248.323 104.548C248.148 104.722 248.028 104.837 247.863 105.007C247.697 105.177 247.523 105.37 247.352 105.563C247.182 105.756 247.076 105.875 246.943 106.022C246.81 106.169 246.617 106.431 246.483 106.637L246.106 107.143C245.95 107.368 245.798 107.602 245.646 107.827C245.494 108.052 245.416 108.171 245.31 108.35C245.154 108.598 245.011 108.86 244.85 109.117C244.754 109.292 244.653 109.462 244.561 109.641C244.409 109.935 244.266 110.243 244.101 110.559C244.027 110.716 243.954 110.863 243.885 111.019C243.678 111.478 243.485 111.969 243.305 112.47C242.616 114.397 242.171 116.403 241.981 118.44C241.916 119.111 241.879 119.777 241.87 120.443C241.854 121.884 241.962 123.323 242.192 124.746C242.374 125.904 242.638 127.047 242.983 128.167C243.265 129.044 243.6 129.903 243.986 130.739C245.1 133.282 246.754 135.553 248.833 137.394C249.73 138.171 250.711 138.846 251.758 139.405C252.154 139.612 252.559 139.796 252.959 139.966L253.203 140.053Z" fill="url(#paint23_linear_1361_3042)"/>
    <path d="M264.309 110.077C256.265 110.302 248.617 116.167 245.14 125.866C244.602 127.374 244.181 128.92 243.88 130.491C245.568 134.335 248.258 137.541 251.767 139.405C253.429 140.293 255.253 140.835 257.13 140.999C263.454 140.825 269.47 136.214 272.201 128.599C273.994 123.567 274.117 118.092 272.551 112.984C272.091 112.681 271.608 112.373 271.111 112.112C269.005 110.983 266.691 110.291 264.309 110.077Z" fill="url(#paint24_linear_1361_3042)"/>
    <path style="mix-blend-mode:multiply" d="M549.865 192.616C549.865 194.995 548.177 195.964 546.116 194.779L509.429 173.625L504.917 177.047V171.021L501.748 169.184C499.683 167.995 498 165.051 498 162.7V126.671C498 124.292 499.683 123.318 501.748 124.508L546.103 150.084C548.163 151.278 549.851 154.194 549.851 156.573L549.865 192.616Z" fill="#CED3F8"/>
    <g style="mix-blend-mode:screen">
        <path d="M540.096 163.775L507.764 145.133V142.869L540.096 161.51V163.775Z" fill="#FFD130"/>
        <path d="M540.096 170.094L507.764 151.453V149.188L540.096 167.83V170.094Z" fill="#FFD130"/>
        <path d="M540.096 176.414L507.764 157.772V155.513L540.096 174.154V176.414Z" fill="#FFD130"/>
        <path d="M532.116 178.136L507.764 164.096V161.832L532.116 175.872V178.136Z" fill="#FFD130"/>
        <path d="M528.86 150.346L526.887 149.207V146.938L528.86 148.073V150.346Z" fill="#FFD130"/>
        <path d="M524.919 148.073L522.946 146.938V144.665L524.919 145.799V148.073Z" fill="#FFD130"/>
        <path d="M520.977 145.799L519.004 144.665V142.392L520.977 143.526V145.799Z" fill="#FFD130"/>
    </g>
    <path style="mix-blend-mode:multiply" d="M409.1 259.654H409.105L399.902 254.349L405.812 247.662H405.807H405.812H397.529L394.627 250.951L394.213 251.07L385.01 245.766L387.047 253.173L375.453 256.581L388.303 257.757L388.376 258.019L382.062 265.169H390.34L396.25 258.483L409.105 259.658L409.1 259.654Z" fill="url(#paint25_linear_1361_3042)"/>
    <path d="M376.731 240.663V245.765L378.764 253.178V248.076L376.731 240.663Z" fill="#FFA028"/>
    <path d="M397.529 242.564V247.667L391.623 254.349V249.251L397.529 242.564Z" fill="#FF8F28"/>
    <path d="M387.967 253.385V258.483L400.826 259.658V254.556L387.967 253.385Z" fill="#FFA028"/>
    <path d="M367.169 251.483V256.581L380.024 257.757V252.659L367.169 251.483Z" fill="#FF8F28"/>
    <path d="M387.967 253.385V258.483L382.062 265.169V260.067L387.967 253.385Z" fill="#FF8F28"/>
    <path d="M382.061 260.067V265.169L380.024 257.757V252.659L382.061 260.067Z" fill="#FFA028"/>
    <path d="M397.528 242.564L391.623 249.251L400.826 254.556L387.967 253.385L382.062 260.067L380.024 252.659L367.169 251.483L378.764 248.076L376.731 240.663L385.929 245.972L397.528 242.564Z" fill="#FFD130"/>
    <path style="mix-blend-mode:multiply" d="M217.724 202.88L209.713 198.26L214.859 192.437H214.855H207.643L205.114 195.298L204.755 195.403L196.739 190.783L198.514 197.24L188.414 200.203L199.608 201.227L199.673 201.456L194.168 207.684H201.384L206.53 201.861L217.729 202.885L217.724 202.88Z" fill="url(#paint26_linear_1361_3042)"/>
    <path d="M189.527 186.342V190.783L191.302 197.24V192.794L189.527 186.342Z" fill="#FFA028"/>
    <path d="M207.648 187.995V192.436L202.497 198.26V193.819L207.648 187.995Z" fill="#FF8F28"/>
    <path d="M199.319 197.419V201.86L210.513 202.884V198.443L199.319 197.419Z" fill="#FFA028"/>
    <path d="M181.203 195.766V200.202L192.397 201.226V196.785L181.203 195.766Z" fill="#FF8F28"/>
    <path d="M199.319 197.419V201.86L194.172 207.683V203.242L199.319 197.419Z" fill="#FF8F28"/>
    <path d="M194.172 203.243V207.684L192.397 201.227V196.786L194.172 203.243Z" fill="#FFA028"/>
    <path d="M207.648 187.995L202.497 193.819L210.513 198.443L199.319 197.419L194.172 203.243L192.397 196.785L181.203 195.766L191.302 192.794L189.527 186.342L197.543 190.962L207.648 187.995Z" fill="#FFD130"/>
    <path style="mix-blend-mode:multiply" d="M464.064 233.664H428.292L422.723 240.984H464.064V233.664Z" fill="url(#paint27_linear_1361_3042)"/>
    <path style="mix-blend-mode:multiply" d="M469.036 220.8H438.148L434.382 226.343H469.036V220.8Z" fill="url(#paint28_linear_1361_3042)"/>
    <path d="M437.987 212.717C439.588 211.628 442.127 213.479 442.752 215.537C442.78 216.423 442.122 217.907 442.122 217.907C442.122 217.907 439.445 223.854 438.535 224.864C437.624 225.875 433.935 227.331 432.16 225.815C430.886 224.162 433.42 223.174 433.88 221.539C434.483 219.413 434.225 217.714 434.8 216.111C435.301 214.793 437.987 212.717 437.987 212.717Z" fill="url(#paint29_linear_1361_3042)"/>
    <path d="M442.596 215.128C442.596 215.128 442.596 215.128 442.596 215.151C442.623 216.037 441.97 217.521 441.97 217.521C441.97 217.521 439.294 223.491 438.383 224.478C437.472 225.466 433.784 226.945 432.008 225.429C431.942 225.344 431.882 225.253 431.829 225.158C431.885 225.399 431.995 225.623 432.151 225.815C433.931 227.33 437.619 225.879 438.525 224.864C439.431 223.849 442.113 217.906 442.113 217.906C442.113 217.906 442.77 216.423 442.743 215.537C442.706 215.399 442.655 215.266 442.596 215.128Z" fill="#140F4A"/>
    <path d="M433.595 214.058C434.377 213.53 437.606 212.359 437.606 212.359C437.799 212.597 438.049 212.784 438.332 212.901C438.381 212.913 438.429 212.928 438.475 212.947C439.271 212.947 440.715 213.7 439.822 215.303C438.093 218.412 434.092 218.302 434.533 216.827C434.832 215.858 434.009 214.669 433.595 214.058Z" fill="white"/>
    <path d="M434.46 217.636C434.336 217.144 434.193 216.083 435.453 215.904C436.713 215.725 438.263 216.327 438.144 217.103C437.886 218.71 434.584 218.155 434.46 217.636Z" fill="url(#paint30_linear_1361_3042)"/>
    <path d="M439.39 212.419C437.895 210.407 426.802 197.075 421.578 194.416C423.334 187.068 427.892 177.497 426.443 169.616H415.313C415.313 169.616 408.718 192.955 412.94 198.517C416.16 202.733 430.293 213.503 435.568 216.887C437.376 216.901 440.043 213.985 439.39 212.419Z" fill="#3B1992"/>
    <path d="M429.943 231.799C431.857 232.111 432.408 235.184 431.452 237.117C430.858 237.779 429.359 238.403 429.359 238.403C429.359 238.403 423.325 240.879 421.968 240.984C420.612 241.09 417.59 240.589 417.369 238.27C417.599 236.855 418.79 236.465 420.253 235.602C422.157 234.472 423.79 232.846 425.312 232.079C426.563 231.473 429.943 231.799 429.943 231.799Z" fill="url(#paint31_linear_1361_3042)"/>
    <path d="M422.01 240.364C423.389 240.254 429.621 237.714 429.621 237.714C430.377 237.401 431.079 236.973 431.705 236.447C431.642 236.678 431.557 236.902 431.452 237.117C430.858 237.779 429.359 238.403 429.359 238.403C429.359 238.403 423.325 240.879 421.968 240.984C420.612 241.09 417.59 240.589 417.369 238.27C417.369 238.224 417.397 238.178 417.401 238.132C418.022 240.038 420.731 240.47 422.01 240.364Z" fill="#140F4A"/>
    <path d="M425.832 229.755C426.752 229.907 429.911 231.276 429.911 231.276C429.888 231.581 429.942 231.887 430.067 232.166C430.09 232.208 430.113 232.254 430.141 232.295C430.711 232.851 431.314 233.829 429.562 234.38C426.163 235.45 423.265 233.172 424.604 232.405C425.501 231.891 425.712 230.476 425.832 229.755Z" fill="white"/>
    <path d="M424.024 232.851C424.277 232.516 424.87 231.62 425.905 232.359C426.94 233.099 427.234 234.059 427.11 234.835C426.986 235.611 424.746 235.037 424.659 234.918C424.571 234.798 424.024 232.851 424.024 232.851Z" fill="url(#paint32_linear_1361_3042)"/>
    <path d="M425.087 169.243C425.087 179.678 424.976 191.348 424.976 200.473C424.976 210.898 424.176 223.817 424.286 232.552C425.965 234.628 430.228 234.105 431.125 232.502C432.234 224.575 434.708 212.496 434.096 203.844C436.736 192.441 440.043 178.888 438.967 169.942C436.437 170.731 427.612 168.44 425.087 169.243Z" fill="url(#paint33_linear_1361_3042)"/>
    <path d="M422.221 127.18C413.699 129.881 411.643 138.202 411.271 143.934C411.018 147.704 410.618 161.487 415.957 158.244C421.297 155.002 422.221 127.18 422.221 127.18Z" fill="url(#paint34_linear_1361_3042)"/>
    <path d="M438.452 133.164C436.24 130.408 430.808 126.546 427.253 126.275C421.2 125.816 416.408 130.822 415.176 135.001C414.012 138.928 414.651 168.591 413.336 173.928C413.975 176.743 419.158 178.268 421.127 178.695C429.663 180.569 439.399 180.233 440.071 174.828C441.345 164.724 441.644 136.347 438.452 133.164Z" fill="url(#paint35_linear_1361_3042)"/>
    <path d="M418.197 160.706L406.787 177.763L429.608 149.312L418.197 160.706Z" fill="#D6DDF1"/>
    <path d="M383.966 149.312L406.787 177.763L395.376 160.706L383.966 149.312Z" fill="#D6DDF1"/>
    <path d="M395.376 160.706L406.787 177.763L418.197 160.706H395.376Z" fill="#BBC2E5"/>
    <path d="M395.376 160.706L383.966 149.312L395.376 137.917H418.197L429.608 149.312L418.197 160.706H395.376Z" fill="#B9BFE8"/>
    <path d="M400.182 148.981L393.578 142.386L400.182 135.791H413.391L419.995 142.386L413.391 148.981H400.182Z" fill="white"/>
    <path d="M395.376 160.706L400.182 148.981H413.391L418.197 160.706H395.376Z" fill="#D6DDF1"/>
    <path style="mix-blend-mode:multiply" d="M395.376 144.544L400.182 135.791H413.391L418.197 144.544H395.376Z" fill="url(#paint36_linear_1361_3042)"/>
    <path d="M393.578 142.386L383.966 149.312L395.376 160.706L400.182 148.981L393.578 142.386Z" fill="#E7ECF6"/>
    <path d="M383.966 149.312L393.578 142.386L400.182 135.791L395.376 137.917L383.966 149.312Z" fill="#E7ECF6"/>
    <path d="M419.996 142.386L429.608 149.312L418.197 160.706L413.391 148.981L419.996 142.386Z" fill="#E7ECF6"/>
    <path d="M429.608 149.312L419.996 142.386L413.391 135.791L418.197 137.917L429.608 149.312Z" fill="#D6DDF1"/>
    <path style="mix-blend-mode:screen" d="M383.966 149.312H400.044L400.182 148.981L393.578 142.386L383.966 149.312Z" fill="url(#paint37_linear_1361_3042)"/>
    <path style="mix-blend-mode:screen" d="M429.608 149.312H413.529L418.197 160.706L429.608 149.312Z" fill="url(#paint38_linear_1361_3042)"/>
    <path d="M418.772 161.666C418.469 161.969 417.153 165.624 419.922 166.717C421.338 165.983 421.812 162.267 418.772 161.666Z" fill="#392B99"/>
    <path d="M420.487 161.666L418.721 162.299C417.728 162.589 415.231 162.097 413.832 160.706C412.434 159.314 412.145 162.084 413.777 162.864C415.41 163.645 415.433 164.339 412.793 164.812C411.715 165.009 410.702 165.47 409.845 166.153C408.898 167.099 407.849 169.188 409.353 170.208C410.567 171.03 414.191 169.404 415.286 168.959C418.307 167.732 417.7 167.122 419.397 166.332C421.094 165.542 421.467 165.556 421.467 165.556L420.487 161.666Z" fill="#FFCEA2"/>
    <path d="M434.519 131.874C436.424 131.488 438.875 131.814 440.535 137.449C441.942 142.212 440.811 151.998 439.969 154.708C437.803 161.666 429.226 164.049 419.922 166.718C421.108 165.363 420.317 162.364 418.772 161.666C425.077 158.91 430.983 154.938 433.085 152.834C433.085 150.451 431.921 141.417 431.783 138.331C431.608 134.501 432.638 132.273 434.519 131.874Z" fill="url(#paint39_linear_1361_3042)"/>
    <path d="M428.012 118.261C428.232 116.304 421.458 120.291 421.734 122.876C421.955 124.98 422.566 126.831 420.437 128.144C419.706 128.732 417.19 132.819 421.053 132.865C426.572 132.93 428.053 131.419 432.05 127.997C429.686 126.656 427.294 124.608 428.012 118.261Z" fill="#FFCEA2"/>
    <path d="M429.608 117.117L426.848 113.25H414.89V120.452C414.89 124.429 417.572 127.653 420.869 127.653C424.089 127.653 427.064 124.998 427.221 121.186L428.674 120.686L429.608 117.117Z" fill="#FFCEA2"/>
    <path d="M421.145 129.563C424.006 129.563 427.547 124.971 427.216 121.177C427.124 122.801 426.461 124.34 425.342 125.521C424.223 126.703 422.722 127.452 421.104 127.634C420.898 127.825 420.675 127.995 420.437 128.144C420.367 128.207 420.301 128.275 420.239 128.346C420.239 128.93 420.626 129.563 421.145 129.563Z" fill="#FBC096"/>
    <path d="M415.575 109.99C414.481 109.797 414.38 108.888 418.823 107.354C421.403 106.091 425.059 105.7 427.428 107.165C430.647 109.149 431.604 112.061 431.024 115.717C430.445 119.372 428.108 122.858 428.108 122.858C427.749 123.212 427.699 121.526 427.989 120.277C428.212 119.959 428.356 119.592 428.407 119.207C429.258 115.492 426.977 116.047 426.664 116.36C425.965 116.649 427.322 119.726 425.284 119.418C424.286 119.271 424.42 116.493 424.424 115.519C424.269 115.547 424.115 115.586 423.964 115.634C422.263 116.58 416.486 117.264 419.696 115.262C417.461 115.262 414.417 116.291 413.386 114.876C412.163 113.191 414.118 111.354 415.575 109.99Z" fill="#3B1992"/>
    <path style="mix-blend-mode:multiply" d="M405.232 390.334L364.796 390.357L357.047 398.105H367.542L364.87 402.596L405.232 402.573V390.334Z" fill="url(#paint40_linear_1361_3042)"/>
    <path d="M364.879 389.085C366.755 389.392 367.298 392.414 366.36 394.306C365.749 394.839 365.055 395.265 364.304 395.569C364.304 395.569 358.38 397.999 357.046 398.104C355.712 398.21 352.751 397.714 352.511 395.441C352.737 394.063 353.891 393.668 355.345 392.818C357.212 391.712 358.812 390.104 360.321 389.36C361.558 388.754 364.879 389.085 364.879 389.085Z" fill="url(#paint41_linear_1361_3042)"/>
    <path d="M361.278 387.16C362.197 387.312 365.136 388.037 365.136 388.037C365.136 388.037 366.222 391.082 364.502 391.624C361.167 392.667 358.325 390.435 359.636 389.681C360.519 389.176 361.383 388.607 361.278 387.16Z" fill="#FFCEA2"/>
    <path d="M357.088 397.498C358.467 397.388 364.561 394.889 364.561 394.889C365.302 394.582 365.992 394.164 366.608 393.649C366.543 393.875 366.46 394.094 366.36 394.306C365.749 394.838 365.055 395.265 364.304 395.569C364.304 395.569 358.38 397.999 357.046 398.104C355.712 398.21 352.751 397.714 352.511 395.441C352.511 395.395 352.511 395.349 352.544 395.303C353.174 397.177 355.832 397.599 357.088 397.498Z" fill="#131147"/>
    <path d="M359.07 390.132C359.318 389.801 359.893 388.924 360.91 389.65C361.926 390.375 362.216 391.317 362.092 392.075C361.968 392.833 359.792 392.272 359.686 392.157C359.581 392.043 359.07 390.132 359.07 390.132Z" fill="#423EAF"/>
    <path d="M358.063 391.078C358.914 391.494 359.61 392.172 360.049 393.011C360.125 393.143 360.247 393.241 360.392 393.286C360.537 393.332 360.694 393.321 360.831 393.256C360.968 393.191 361.075 393.077 361.132 392.936C361.188 392.795 361.189 392.638 361.135 392.497C360.57 391.391 359.655 390.503 358.532 389.971C358.458 389.932 358.376 389.909 358.293 389.903C358.209 389.898 358.125 389.909 358.047 389.938C357.968 389.966 357.896 390.011 357.835 390.068C357.775 390.126 357.727 390.196 357.695 390.273C357.663 390.35 357.647 390.433 357.649 390.517C357.651 390.6 357.67 390.683 357.706 390.758C357.741 390.834 357.792 390.902 357.855 390.957C357.918 391.012 357.992 391.053 358.072 391.078H358.063ZM356.209 392.258C357.062 392.673 357.758 393.351 358.196 394.192C358.265 394.336 358.388 394.447 358.539 394.5C358.69 394.554 358.856 394.545 359.001 394.476C359.145 394.407 359.257 394.284 359.31 394.133C359.364 393.983 359.355 393.817 359.286 393.673C358.718 392.569 357.801 391.683 356.678 391.151C356.535 391.106 356.38 391.117 356.244 391.181C356.107 391.244 356 391.356 355.942 391.495C355.885 391.634 355.881 391.789 355.932 391.93C355.983 392.071 356.085 392.188 356.218 392.258H356.209Z" fill="white"/>
    <path d="M361.793 327.383C360.873 338.525 359.397 349.133 359.397 358.075C359.397 368.307 361.177 379.082 361.287 387.656C361.19 390.288 364.18 392.345 365.426 390.026C365.477 389.263 365.118 388.294 365.251 387.174C366.015 380.643 368.255 370.608 366.369 362.167C368.963 350.97 376.105 337.138 375.048 328.357C371.824 326.749 364.263 326.593 361.793 327.383Z" fill="#FFCEA2"/>
    <path d="M364.796 331.631V333.501L366.42 332.564L364.796 331.631Z" fill="#443BB5"/>
    <path d="M372.702 393.581C374.578 393.884 375.121 396.906 374.183 398.803C373.573 399.335 372.878 399.762 372.127 400.066C372.127 400.066 366.203 402.491 364.869 402.596C363.536 402.702 360.574 402.21 360.335 399.932C360.56 398.555 361.714 398.164 363.168 397.31C365.035 396.203 366.636 394.596 368.144 393.856C369.386 393.255 372.702 393.581 372.702 393.581Z" fill="url(#paint42_linear_1361_3042)"/>
    <path d="M369.101 391.656C370.021 391.803 372.96 392.533 372.96 392.533C372.96 392.533 374.045 395.578 372.329 396.116C368.99 397.163 366.148 394.926 367.459 394.173C368.342 393.672 369.207 393.103 369.101 391.656Z" fill="#FFCEA2"/>
    <path d="M364.911 401.98C366.291 401.87 372.384 399.376 372.384 399.376C373.126 399.068 373.816 398.648 374.431 398.132C374.366 398.359 374.283 398.58 374.183 398.793C373.573 399.325 372.878 399.752 372.127 400.056C372.127 400.056 366.203 402.481 364.869 402.587C363.536 402.692 360.574 402.201 360.335 399.923C360.335 399.877 360.335 399.836 360.367 399.785C360.997 401.668 363.655 402.091 364.911 401.98Z" fill="#131147"/>
    <path d="M366.893 394.633C367.142 394.302 367.717 393.425 368.733 394.15C369.749 394.876 370.039 395.817 369.915 396.58C369.791 397.342 367.615 396.773 367.51 396.662C367.404 396.552 366.893 394.633 366.893 394.633Z" fill="#423EAF"/>
    <path d="M365.886 395.551C366.737 395.969 367.432 396.646 367.873 397.484C367.948 397.616 368.071 397.714 368.215 397.76C368.36 397.805 368.517 397.794 368.654 397.729C368.791 397.664 368.899 397.55 368.955 397.409C369.011 397.268 369.013 397.112 368.958 396.97C368.393 395.866 367.478 394.979 366.355 394.449C366.283 394.419 366.205 394.403 366.126 394.403C366.048 394.403 365.97 394.418 365.898 394.448C365.825 394.478 365.759 394.521 365.703 394.577C365.648 394.632 365.603 394.698 365.573 394.77C365.543 394.843 365.527 394.92 365.527 394.999C365.527 395.077 365.542 395.155 365.572 395.227C365.602 395.3 365.646 395.366 365.702 395.421C365.757 395.477 365.823 395.521 365.895 395.551H365.886ZM364.033 396.75C364.885 397.165 365.582 397.843 366.019 398.683C366.053 398.755 366.101 398.819 366.159 398.872C366.218 398.925 366.287 398.966 366.361 398.993C366.436 399.019 366.515 399.031 366.594 399.027C366.673 399.023 366.75 399.004 366.822 398.97C366.894 398.936 366.958 398.889 367.011 398.83C367.064 398.772 367.105 398.703 367.132 398.629C367.159 398.555 367.17 398.476 367.166 398.397C367.163 398.318 367.143 398.24 367.109 398.169C366.545 397.064 365.629 396.178 364.506 395.647C364.432 395.605 364.35 395.579 364.265 395.571C364.18 395.563 364.094 395.573 364.013 395.601C363.932 395.628 363.858 395.672 363.796 395.731C363.734 395.789 363.684 395.86 363.652 395.939C363.619 396.017 363.603 396.102 363.605 396.187C363.608 396.273 363.629 396.356 363.666 396.433C363.703 396.51 363.756 396.578 363.822 396.632C363.888 396.687 363.964 396.727 364.046 396.75H364.033Z" fill="white"/>
    <path d="M367.942 332.173C367.942 342.415 367.831 353.873 367.831 362.815C367.831 373.047 369.013 383.573 369.124 392.143C369.027 394.775 372.016 396.837 373.263 394.513C373.313 393.75 372.959 392.781 373.088 391.661C373.851 385.13 376.091 375.1 374.206 366.654C376.8 355.462 380.801 343.668 378.423 332.251C375.181 330.648 370.407 331.392 367.942 332.173ZM362.731 292.677C361.917 293.338 354.36 311.157 353.072 313.904C351.412 317.38 350 327.319 350 327.319L352.608 327.943C353.528 325.89 355.975 318.202 356.95 316.058C357.869 313.996 363.122 302.817 363.122 302.817L362.731 292.677Z" fill="#FFCEA2"/>
    <path d="M375.641 319.006C374.795 311.29 378.442 304.007 379.109 299.184C379.532 296.144 379.835 292.58 377.076 291.721C374.224 290.835 373.075 290.422 370.6 290.486C364.649 290.633 361.862 291.864 360.648 295.947C359.507 299.8 358.698 300.971 357.755 304.751C357.336 306.445 362.004 310.124 361.462 317.435C357.322 323.681 354.361 337.79 353.096 348.876C352.613 352.215 356.016 356.504 362.032 359.513C369.621 363.306 378.465 363.609 381.808 360.192C382.57 359.431 383.016 358.411 383.059 357.336C383.046 353.4 380.82 325.417 375.641 319.006Z" fill="url(#paint43_linear_1361_3042)"/>
    <path d="M372.716 283.248C372.61 281.411 366.346 285.058 366.484 287.469C366.599 289.435 366.857 291.409 366.121 291.662C365.265 292.277 362.722 298.794 364.249 300.319C369.57 298.142 372.343 293.54 377.076 291.722C375.14 291.327 373.056 289.168 372.716 283.248Z" fill="#FFCEA2"/>
    <path d="M374.224 280.736L372.338 276.024H360.381V283.207C360.381 287.171 363.057 290.385 366.36 290.385C369.579 290.385 372.154 287.359 372.306 283.556H373.139L374.224 280.736Z" fill="#FFCEA2"/>
    <path d="M371.281 287.216C370.255 289.053 368.558 290.252 366.613 290.353C366.644 290.769 366.537 291.184 366.309 291.533C366.627 291.54 366.945 291.513 367.257 291.451C369.253 290.959 370.702 289.315 371.281 287.216Z" fill="#FBC096"/>
    <path d="M378.699 322.676L379.982 325.868C384.453 323.539 387.07 317.463 387.341 312.549C387.686 305.945 380.833 294.785 380.479 294.257C378.745 291.676 374.629 293.968 375.99 297.27C376.285 297.94 383.298 309.459 382.549 313.344C382.02 316.058 381.137 320.995 378.699 322.676Z" fill="#FFCEA2"/>
    <path d="M367.022 271C367.698 271 368.291 271.041 368.443 271.06C374.919 271.836 375.802 278.371 378.469 280.171C380.116 281.274 383.786 279.193 385.934 282.927C388.408 287.203 384.407 288.75 387.024 290.56C389.64 292.369 391.655 297.908 387.29 301.279C382.926 304.65 377.462 301.692 378.092 296.728C378.552 293.155 377.476 291.313 374.468 292.466C372.219 293.329 371.359 291.547 372.371 289.251C367.362 289.752 372.614 280.217 365.053 276.281C363.756 276.171 362.455 277.572 360.385 276.833C360.031 276.029 360.519 271 367.022 271Z" fill="url(#paint44_linear_1361_3042)"/>
    <path d="M378.699 322.676C378.179 323.016 375.309 322.336 374.629 322.336C373.241 322.307 371.856 322.479 370.517 322.846C368.953 323.347 367.886 323.921 368.953 324.164C368.374 324.288 367.017 324.844 368.089 325.151C368.19 325.523 368.581 326.015 369.754 325.974C370.145 326.281 372.881 326.855 373.723 326.713C374.61 326.979 379.242 326.883 379.982 325.868C379.982 324.146 378.699 322.676 378.699 322.676Z" fill="#FFCEA2"/>
    <path style="mix-blend-mode:multiply" d="M366.764 389.216H338.874V394.337H366.764V389.216Z" fill="url(#paint45_linear_1361_3042)"/>
    <path style="mix-blend-mode:multiply" d="M354.079 381.825H326.192V386.942H354.079V381.825Z" fill="url(#paint46_linear_1361_3042)"/>
    <path d="M323.332 385.367C323.332 381.347 325.883 381.23 325.883 381.23C325.883 381.23 327.266 381.23 329.512 380.286C331.758 379.343 334.848 379.723 333.103 382.938C333.103 382.976 333.065 383.017 333.043 383.058C332.897 383.266 332.702 383.435 332.476 383.552L326.9 386.82C326.05 387.314 323.35 386.197 323.332 385.367Z" fill="url(#paint47_linear_1361_3042)"/>
    <path d="M323.347 385.008C323.394 385.832 326.059 386.933 326.9 386.452L332.476 383.187C332.756 383.021 333.019 382.829 333.263 382.614C333.213 382.724 333.166 382.831 333.103 382.951C333.103 382.989 333.065 383.029 333.043 383.07C332.897 383.278 332.702 383.448 332.476 383.564L326.9 386.832C326.103 387.285 323.687 386.332 323.366 385.527C323.352 385.473 323.344 385.419 323.341 385.363C323.335 385.245 323.337 385.126 323.347 385.008Z" fill="#131147"/>
    <path d="M324.371 380.702C325.026 380.702 327.338 381.29 327.338 381.29C327.356 381.503 327.428 381.709 327.546 381.888L327.612 381.966C328.066 382.281 328.532 382.784 327.448 383.463C327.16 383.676 326.805 383.779 326.448 383.753C326.09 383.728 325.754 383.576 325.498 383.325C325.358 383.034 325.14 382.786 324.868 382.611C324.687 382.486 324.483 382.399 324.267 382.356V382.303C324.267 382.303 324.094 380.702 324.371 380.702Z" fill="white"/>
    <path d="M324.327 341.386L335.667 341.587C334.722 349.155 332.832 356.028 331.572 363.36C330.217 370.482 328.693 375.486 327.36 381.416C326.872 382.52 324.645 382.101 324.191 381.038C323.842 375.581 323.432 368.931 325.055 362.631C324.796 355.843 324.169 348.243 324.327 341.386Z" fill="#3B1992"/>
    <path d="M336.042 392.755C336.042 388.735 338.593 388.619 338.593 388.619C338.593 388.619 339.976 388.619 342.222 387.675C344.468 386.732 347.558 387.112 345.813 390.324C345.797 390.365 345.777 390.405 345.753 390.443C345.608 390.652 345.413 390.823 345.186 390.94L339.611 394.205C338.76 394.702 336.064 393.583 336.042 392.755Z" fill="url(#paint48_linear_1361_3042)"/>
    <path d="M336.058 392.394C336.105 393.221 338.77 394.319 339.611 393.838L345.186 390.576C345.466 390.409 345.73 390.216 345.974 390C345.92 390.113 345.879 390.217 345.813 390.337C345.796 390.378 345.776 390.418 345.753 390.456C345.607 390.665 345.413 390.836 345.186 390.953L339.611 394.218C338.817 394.674 336.398 393.718 336.076 392.916C336.064 392.862 336.057 392.807 336.054 392.752C336.046 392.633 336.047 392.513 336.058 392.394Z" fill="#131147"/>
    <path d="M337.081 388.087C337.736 388.087 340.052 388.676 340.052 388.676C340.07 388.89 340.14 389.096 340.256 389.276C340.279 389.301 340.3 389.327 340.319 389.355C340.779 389.67 341.242 390.17 340.159 390.849C339.871 391.062 339.516 391.165 339.159 391.14C338.801 391.116 338.465 390.964 338.209 390.714C338.068 390.423 337.85 390.176 337.579 390C337.396 389.875 337.191 389.788 336.974 389.745C336.975 389.727 336.975 389.709 336.974 389.692C336.974 389.692 336.804 388.087 337.081 388.087Z" fill="white"/>
    <path d="M332.328 359.397C331.638 356.145 323.688 355.739 324.21 342.946C326.705 342.581 339.29 348.476 341.781 348.108C342.096 355.726 341.356 362.816 341.309 370.252C341.139 377.487 340.455 382.686 340.109 388.751C339.809 389.921 337.541 389.874 336.921 388.899C335.683 383.57 334.193 377.075 334.763 370.595C334.02 366.993 333.134 363.19 332.328 359.397Z" fill="url(#paint49_linear_1361_3042)"/>
    <path d="M329.962 318.093C321.086 324.016 320.027 335.78 324.828 343.257C324.828 343.245 323.795 326.703 329.962 318.093Z" fill="#FF8F28"/>
    <path d="M329.559 350.184C334.961 353.213 340.616 353.216 342.54 349.495C341.819 342.575 341.145 336.913 342.54 330.282C342.131 326.615 341.838 326.064 342.31 323.922C342.143 323.205 339.932 321.673 338.322 320.204C336.584 318.631 335.409 317.112 334.511 316.93C327.124 315.423 323.533 328.568 324.154 342.588C324.721 346.312 326.897 348.703 329.559 350.184Z" fill="url(#paint50_linear_1361_3042)"/>
    <path d="M330.413 317.766C332.013 316.609 331.884 314.218 331.751 312.63C331.483 311.741 331.376 310.812 331.436 309.887C331.673 306.392 334.108 303.52 336.829 303.891C342.31 304.64 341.135 307.471 340.899 310.969C340.679 314.205 339.056 316.338 336.571 316.546C336.536 317.08 336.754 318.697 337.425 319.377C335.62 320.452 332.989 319.946 331.947 319.477C330.857 318.971 329.66 318.543 330.413 317.766Z" fill="#FFCEA2"/>
    <path d="M339.034 302.183C338.905 301.746 337.346 300.683 336.08 301.092C334.936 301.46 334.505 302.142 334.482 302.841C334.482 302.875 333.537 302.526 332.961 303.184C332.511 303.684 332.463 304.263 332.495 304.948C332.123 304.785 331.55 304.533 331.068 305.949C330.167 308.676 330.929 312.101 331.273 312.806C331.602 313.385 331.747 314.051 331.688 314.715C333.761 314.63 334.416 315.794 335.742 314.633C336.687 313.803 338.118 312.828 338.357 312.431C338.529 312.127 338.598 311.775 338.552 311.428C338.552 308.518 339.904 310.296 339.86 310.962C340.411 310.695 340.373 309.525 340.338 308.226C344.821 304.882 342.411 300.51 339.034 302.183Z" fill="#3B1992"/>
    <path d="M348.529 331.021C348.684 330.917 348.796 330.759 348.844 330.578C348.844 330.468 348.664 329.181 348.774 328.766C348.885 328.351 349.011 327.7 349.259 327.687C349.452 327.706 349.633 327.789 349.773 327.923C349.952 327.577 350.866 326.014 350.866 326.014C351.316 326.215 352.091 326.401 352.271 327.244C352.135 327.657 352.05 328.084 352.016 328.518C352.195 328.668 352.28 329.304 352.154 329.389C352.236 329.486 352.264 330.093 352.126 330.175C351.987 330.257 351.987 330.729 351.934 330.839C351.955 331.066 351.929 331.295 351.858 331.511C351.786 331.728 351.67 331.927 351.518 332.097C351.417 332.189 351.293 332.253 351.159 332.282C351.025 332.312 350.886 332.305 350.756 332.264C350.604 332.346 349.675 333.094 349.675 333.094L348.529 331.021Z" fill="#FFCEA2"/>
    <path d="M348.661 330.669C348.661 330.669 346.204 332.845 344.963 333.814C344.241 330.908 343.781 329.068 342.241 323.764C341.463 322.619 338.956 323.053 337.721 324.683C336.051 326.885 336.918 329.021 337.721 331.386C338.883 335.255 341.737 338.441 343.756 339.725C344.046 339.907 344.43 339.725 344.72 339.536C345.98 338.731 349.149 334.645 350.056 333.386C350.963 332.128 349.688 330.669 348.661 330.669Z" fill="url(#paint51_linear_1361_3042)"/>
    <path style="mix-blend-mode:multiply" d="M459.577 385.955C456.303 384.067 451.952 383.199 447.679 383.328H440.978V384.435C439.746 384.814 438.558 385.327 437.437 385.964C431.343 389.505 431.38 395.236 437.511 398.773C438.609 399.397 439.771 399.901 440.978 400.275V401.427H449.018C452.881 401.368 456.707 400.509 459.651 398.787C465.745 395.227 465.713 389.487 459.577 385.955Z" fill="url(#paint52_linear_1361_3042)"/>
    <path d="M430.607 398.768C427.521 396.991 425.98 394.635 426.008 392.339V387.025C426.008 389.358 427.544 391.691 430.63 393.455C436.765 396.991 446.677 396.991 452.77 393.455C455.797 391.696 457.314 389.399 457.319 387.098V392.412C457.319 394.708 455.801 397.005 452.77 398.773C446.654 402.309 436.742 402.309 430.607 398.768Z" fill="url(#paint53_linear_1361_3042)"/>
    <path d="M430.621 393.455C424.49 389.918 424.454 384.182 430.548 380.65C436.641 377.119 446.557 377.114 452.688 380.65C458.819 384.187 458.855 389.918 452.761 393.455C446.668 396.991 436.77 396.991 430.621 393.455Z" fill="#EFF1F5"/>
    <path d="M448.378 383.006L445.269 386.52L450.108 389.307L443.351 388.692L440.247 392.205L439.175 388.311L432.424 387.695L438.518 385.904L437.446 382.01L442.28 384.797L448.378 383.006Z" fill="#B9BFE8"/>
    <path style="mix-blend-mode:multiply" d="M580.506 301.129C576.123 298.608 570.296 297.455 564.575 297.611H551.311V299.081C549.659 299.59 548.068 300.277 546.564 301.129C538.405 305.869 538.451 313.529 546.661 318.282C548.136 319.114 549.694 319.789 551.311 320.294V321.828H566.382C571.556 321.741 576.684 320.569 580.639 318.282C588.762 313.547 588.72 305.873 580.506 301.129Z" fill="url(#paint54_linear_1361_3042)"/>
    <path d="M537.407 310.287C533.268 307.903 531.208 304.775 531.222 301.653V297.652C531.222 300.78 533.277 303.907 537.412 306.291C545.626 311.026 558.899 311.026 567.058 306.291C571.115 303.94 573.143 300.863 573.152 297.776V301.777C573.152 304.858 571.115 307.935 567.058 310.291C558.908 315.026 545.635 315.026 537.407 310.287Z" fill="url(#paint55_linear_1361_3042)"/>
    <path d="M537.407 314.287C533.268 311.903 531.208 308.775 531.222 305.652V301.652C531.222 304.78 533.277 307.903 537.412 310.286C545.626 315.026 558.899 315.026 567.058 310.286C571.115 307.93 573.143 304.853 573.152 301.772V305.767C573.152 308.854 571.115 311.931 567.058 314.282C558.908 319.026 545.635 319.026 537.407 314.287Z" fill="#BCB1FF"/>
    <path d="M537.407 318.273C533.268 315.89 531.208 312.762 531.222 309.639V305.634C531.222 308.762 533.277 311.889 537.412 314.273C545.626 319.008 558.899 319.008 567.058 314.273C571.115 311.917 573.143 308.84 573.152 305.754V309.754C573.152 312.835 571.115 315.912 567.058 318.268C558.908 323.026 545.635 323.026 537.407 318.273Z" fill="url(#paint56_linear_1361_3042)"/>
    <path d="M537.439 306.291C529.225 301.556 529.161 293.891 537.338 289.142C545.516 284.394 558.78 284.407 566.989 289.142C575.199 293.877 575.268 301.542 567.086 306.291C558.904 311.04 545.654 311.026 537.439 306.291Z" fill="#F1F1F6"/>
    <path d="M563.945 296.151L547.158 297L547.677 293.234H543.037L541.781 300.1L563.945 298.824V296.151Z" fill="#BCB1FF"/>
    <path d="M116.267 65.5152C116.267 52.2656 125.585 36.1548 137.074 29.5323C148.562 22.9097 157.88 28.2785 157.88 41.5281C157.88 54.7777 148.549 70.8885 137.074 77.511C125.599 84.1336 116.267 78.7648 116.267 65.5152Z" fill="#FF8F28"/>
    <path d="M146.948 25.2979C143.177 23.0705 137.943 23.3552 132.153 26.6756C120.655 33.3027 111.346 49.4135 111.346 62.6632C111.346 69.575 113.894 74.3146 117.955 76.3537V76.3766L122.172 78.8061C118.53 76.5879 116.281 71.9953 116.281 65.4876C116.281 52.238 125.599 36.1272 137.087 29.5047C142.827 26.198 148.02 25.8811 151.805 28.0442L146.985 25.2887L146.948 25.2979ZM122.862 79.2332C122.766 79.1827 122.664 79.146 122.573 79.0955L122.862 79.2332Z" fill="url(#paint57_linear_1361_3042)"/>
    <path d="M152.274 43.6358C152.274 38.7722 150.646 35.2956 148.001 33.4999C145.122 32.1222 141.291 32.4391 137.074 34.8777C128.137 40.0306 120.889 52.5592 120.889 62.865C120.889 67.7285 122.517 71.2051 125.162 73.0008C128.041 74.3786 131.872 74.0571 136.089 71.623C145.026 66.461 152.274 53.9278 152.274 43.6358Z" fill="white"/>
    <path d="M148.001 33.4912C150.646 35.2869 152.274 38.7635 152.274 43.6271C152.274 53.9282 145.026 66.4614 136.089 71.6143C131.872 74.0438 128.041 74.3699 125.162 72.9921C128.119 75.0036 132.355 74.9072 137.074 72.1838C146.01 67.0309 153.253 54.5023 153.253 44.1965C153.253 38.7543 151.221 35.0435 148.001 33.4912Z" fill="#FFD130"/>
    <path d="M145.738 57.1656L136.655 51.9301V40.6369C136.655 39.9205 136.154 39.6265 135.528 39.9847C135.201 40.1985 134.929 40.4862 134.734 40.8245C134.539 41.1628 134.427 41.5422 134.406 41.932V53.7625C134.402 53.9201 134.432 54.0767 134.494 54.2218C134.541 54.3411 134.627 54.4412 134.737 54.5065L144.147 59.9304C144.607 60.183 145.297 59.7742 145.738 59.0118C146.18 58.2495 146.175 57.4136 145.738 57.1656Z" fill="url(#paint58_linear_1361_3042)"/>
    <g style="mix-blend-mode:multiply">
        <path d="M151.63 333.837H114.956L110.914 341.31H151.63V333.837Z" fill="url(#paint59_linear_1361_3042)"/>
        <path d="M147.638 327.692H108.743L106.922 332.717H147.638V327.692Z" fill="url(#paint60_linear_1361_3042)"/>
        <path d="M189.992 290.745C180.876 292.054 168.95 287.728 163.956 287.416C160.98 287.232 148.562 290.313 139.024 292.835C143.678 298.799 148.959 304.247 154.776 309.088C158.386 308.569 164.305 305.262 167.736 305.487C171.167 305.712 189.992 307.072 189.992 307.072V290.745Z" fill="url(#paint61_linear_1361_3042)"/>
        <path d="M139.019 292.835V310.144C143.679 316.086 148.959 321.514 154.771 326.338V309.088C148.954 304.248 143.673 298.799 139.019 292.835Z" fill="url(#paint62_linear_1361_3042)"/>
    </g>
    <path d="M110.399 327.215C108.518 329.153 109.939 332.799 106.595 332.726C101.945 332.615 92.3009 332.652 92.5631 330.356C92.7839 328.409 99.4618 327.917 102.681 327.081C107.142 325.919 107.805 324.514 107.805 324.514L110.399 327.215Z" fill="url(#paint63_linear_1361_3042)"/>
    <path d="M107.795 324.51C107.795 324.51 107.133 325.915 102.672 327.077C101.853 327.293 100.832 327.481 99.7101 327.679C99.7101 327.679 99.1168 327.789 99.1352 328.73C99.172 330.613 107.211 331.242 109.138 330.347C109.428 329.401 109.561 328.078 110.399 327.215L107.795 324.51Z" fill="#FFCEA2"/>
    <path d="M114.11 330.535C113.954 331.242 112.533 333.424 111.594 334.508C110.794 335.426 107.883 338.333 107.529 338.641C106.213 339.743 106.986 341.002 108.812 341.185C110.638 341.369 111.907 341.41 112.873 340.965C114.161 340.368 118.723 337.814 118.64 335.913C118.599 334.926 118.36 334.889 118.249 332.629C118.222 332.009 118.249 330.526 118.249 330.526L114.11 330.535Z" fill="url(#paint64_linear_1361_3042)"/>
    <path d="M114.363 337.103C115.78 336.51 117.675 335.266 118.387 334.26C118.337 333.888 118.286 333.387 118.249 332.648C118.222 332.028 118.249 330.544 118.249 330.544H114.11C113.954 331.252 112.533 333.433 111.594 334.517C111.309 334.848 110.753 335.436 110.141 336.06C109.755 337.291 112.997 337.672 114.363 337.103Z" fill="#FFCEA2"/>
    <path d="M165.966 285.776C167.042 287.884 170.781 295.733 165.381 300.279C159.982 304.826 142.583 308.679 134.245 309.588C131.66 314.668 110.504 327.458 110.504 327.458C108.945 326.829 108.435 326.007 107.257 324.827C109.097 322.338 127.158 303.168 129.614 301.864C132.07 300.559 153.736 286.878 153.736 286.878L165.966 285.776Z" fill="#20196F"/>
    <path d="M151.317 282.304C148.838 283.3 126.546 291.089 122.246 295.287C117.946 299.485 113.885 330.333 113.885 330.333C114.441 330.931 115.185 331.322 115.993 331.441C116.802 331.56 117.627 331.399 118.332 330.985C120.434 324.634 128.326 307.627 127.963 300.936C135.377 300.091 156.891 292.113 159.936 289.248C162.981 286.382 151.317 282.304 151.317 282.304Z" fill="url(#paint65_linear_1361_3042)"/>
    <path d="M137.437 281.454C137.655 281.346 137.895 281.289 138.139 281.289C138.382 281.289 138.622 281.346 138.84 281.454L162.443 295.062C162.527 295.091 162.6 295.146 162.652 295.218C162.704 295.29 162.732 295.377 162.732 295.466C162.732 295.555 162.704 295.642 162.652 295.715C162.6 295.787 162.527 295.842 162.443 295.871L146.346 305.148C146.127 305.256 145.886 305.313 145.642 305.313C145.398 305.313 145.157 305.256 144.938 305.148L121.34 291.54C121.256 291.511 121.182 291.456 121.131 291.384C121.079 291.312 121.051 291.225 121.051 291.136C121.051 291.046 121.079 290.96 121.131 290.887C121.182 290.815 121.256 290.76 121.34 290.731L137.437 281.454Z" fill="white"/>
    <g style="mix-blend-mode:multiply">
        <path d="M144.925 303.219L146.079 303.88L145.504 304.215L144.35 303.549L144.925 303.219Z" fill="#E6EAF5"/>
        <path d="M142.979 302.093L144.134 302.759L143.559 303.094L142.404 302.429L142.979 302.093Z" fill="#E6EAF5"/>
        <path d="M141.038 300.978L142.193 301.639L141.613 301.974L140.459 301.308L141.038 300.978Z" fill="#E6EAF5"/>
        <path d="M139.093 299.852L140.247 300.518L139.672 300.853L138.518 300.187L139.093 299.852Z" fill="#E6EAF5"/>
        <path d="M137.152 298.731L138.302 299.397L137.727 299.733L136.573 299.067L137.152 298.731Z" fill="#E6EAF5"/>
        <path d="M135.207 297.611L136.361 298.277L135.782 298.612L134.627 297.946L135.207 297.611Z" fill="#E6EAF5"/>
        <path d="M133.261 296.49L134.416 297.156L133.841 297.491L132.686 296.825L133.261 296.49Z" fill="#E6EAF5"/>
        <path d="M131.316 295.37L132.47 296.036L131.895 296.371L130.741 295.705L131.316 295.37Z" fill="#E6EAF5"/>
        <path d="M129.375 294.249L130.529 294.915L129.95 295.25L128.795 294.584L129.375 294.249Z" fill="#E6EAF5"/>
        <path d="M127.429 293.128L128.584 293.794L128.009 294.13L126.854 293.464L127.429 293.128Z" fill="#E6EAF5"/>
        <path d="M125.484 292.008L126.638 292.674L126.064 293.009L124.909 292.343L125.484 292.008Z" fill="#E6EAF5"/>
        <path d="M123.543 290.888L124.697 291.554L124.118 291.889L122.964 291.223L123.543 290.888Z" fill="#E6EAF5"/>
        <path d="M145.946 301.565L148.025 302.759L146.87 303.425L144.796 302.231L145.946 301.565Z" fill="#E6EAF5"/>
        <path d="M147.022 300.036L149.887 301.685L148.733 302.351L145.867 300.702L147.022 300.036Z" fill="#E6EAF5"/>
        <path d="M148.176 298.46L151.832 300.568L150.678 301.23L147.022 299.122L148.176 298.46Z" fill="#E6EAF5"/>
        <path d="M152.108 298.015L154.183 299.209L152.619 300.109L150.545 298.915L152.108 298.015Z" fill="#E6EAF5"/>
        <path d="M149.243 296.362L151.317 297.556L149.754 298.461L147.679 297.262L149.243 296.362Z" fill="#E6EAF5"/>
        <path d="M146.378 294.708L148.452 295.907L146.888 296.807L144.814 295.613L146.378 294.708Z" fill="#E6EAF5"/>
        <path d="M136.499 289.014L138.578 290.212L137.014 291.112L134.94 289.918L136.499 289.014Z" fill="#E6EAF5"/>
        <path d="M131.647 286.217L135.717 288.564L134.153 289.464L130.083 287.117L131.647 286.217Z" fill="#E6EAF5"/>
        <path d="M139.36 290.663L145.587 294.254L144.023 295.154L137.796 291.567L139.36 290.663Z" fill="#E6EAF5"/>
        <path d="M143.457 300.132L145.159 301.111L144.005 301.776L142.308 300.798L143.457 300.132Z" fill="#E6EAF5"/>
        <path d="M144.534 298.599L146.231 299.581L145.076 300.247L143.379 299.269L144.534 298.599Z" fill="#E6EAF5"/>
        <path d="M145.633 297.055L147.335 298.033L146.18 298.699L144.479 297.721L145.633 297.055Z" fill="#E6EAF5"/>
        <path d="M143.145 295.623L144.846 296.601L143.692 297.267L141.99 296.288L143.145 295.623Z" fill="#E6EAF5"/>
        <path d="M140.657 294.185L142.358 295.168L141.204 295.829L139.507 294.851L140.657 294.185Z" fill="#E6EAF5"/>
        <path d="M138.168 292.752L139.87 293.73L138.716 294.396L137.019 293.418L138.168 292.752Z" fill="#E6EAF5"/>
        <path d="M135.685 291.319L137.382 292.298L136.228 292.963L134.531 291.985L135.685 291.319Z" fill="#E6EAF5"/>
        <path d="M133.197 289.882L134.894 290.865L133.739 291.531L132.042 290.548L133.197 289.882Z" fill="#E6EAF5"/>
        <path d="M129.242 287.604L132.406 289.431L131.251 290.093L128.087 288.269L129.242 287.604Z" fill="#E6EAF5"/>
        <path d="M142.045 297.166L143.743 298.144L142.588 298.81L140.891 297.831L142.045 297.166Z" fill="#E6EAF5"/>
        <path d="M139.557 295.732L141.255 296.711L140.1 297.377L138.403 296.398L139.557 295.732Z" fill="#E6EAF5"/>
        <path d="M137.069 294.3L138.766 295.278L137.612 295.944L135.915 294.966L137.069 294.3Z" fill="#E6EAF5"/>
        <path d="M134.581 292.862L136.283 293.841L135.128 294.506L133.427 293.528L134.581 292.862Z" fill="#E6EAF5"/>
        <path d="M132.093 291.429L133.79 292.407L132.64 293.073L130.938 292.095L132.093 291.429Z" fill="#E6EAF5"/>
        <path d="M127.351 288.692L131.306 290.975L130.152 291.641L126.197 289.358L127.351 288.692Z" fill="#E6EAF5"/>
        <path d="M140.974 298.695L142.671 299.673L141.517 300.339L139.82 299.361L140.974 298.695Z" fill="#E6EAF5"/>
        <path d="M138.486 297.262L140.183 298.24L139.028 298.906L137.331 297.928L138.486 297.262Z" fill="#E6EAF5"/>
        <path d="M135.998 295.829L137.695 296.807L136.54 297.473L134.843 296.495L135.998 295.829Z" fill="#E6EAF5"/>
        <path d="M133.51 294.392L135.207 295.37L134.052 296.036L132.355 295.058L133.51 294.392Z" fill="#E6EAF5"/>
        <path d="M131.021 292.958L132.718 293.937L131.564 294.603L129.867 293.624L131.021 292.958Z" fill="#E6EAF5"/>
        <path d="M128.533 291.526L130.23 292.504L129.076 293.17L127.379 292.192L128.533 291.526Z" fill="#E6EAF5"/>
        <path d="M125.484 289.767L127.742 291.071L126.588 291.733L124.334 290.433L125.484 289.767Z" fill="#E6EAF5"/>
    </g>
    <path d="M162.443 295.87L146.346 305.147C145.992 305.323 145.585 305.361 145.205 305.253L144.938 305.147L121.34 291.539C121.314 291.525 121.289 291.508 121.266 291.489L121.23 291.457L121.188 291.411C121.135 291.35 121.104 291.272 121.101 291.19V291.53C121.107 291.618 121.137 291.702 121.187 291.774C121.237 291.846 121.306 291.903 121.386 291.939L144.984 305.547C145.495 305.751 146.052 305.81 146.594 305.717C146.833 305.666 147.054 305.607 147.298 305.551L162.475 296.798C162.557 296.764 162.627 296.708 162.678 296.636C162.728 296.563 162.757 296.478 162.76 296.389V295.512C162.742 295.594 162.704 295.67 162.648 295.733C162.593 295.796 162.522 295.843 162.443 295.87Z" fill="url(#paint66_linear_1361_3042)"/>
    <path d="M151.023 236.557C147.882 241.095 147.344 251.207 150.163 257.798C152.265 257.798 155.608 254.909 158.736 255.919C159.453 256.149 154.868 236.557 151.023 236.557Z" fill="#20196F"/>
    <path d="M137.823 282.878C136.2 283.741 132.728 284.256 131.716 285.174C130.704 286.093 130.479 288.683 131.256 289.519C132.033 290.355 132.884 290.327 132.447 289.519C132.01 288.711 132.13 287.149 133.335 287.025C135.666 286.782 132.723 289.358 133.827 289.381C134.848 289.381 135.294 288.081 136.54 287.131C137.787 286.18 138.661 285.886 139.829 284.857C140.859 283.934 137.823 282.878 137.823 282.878Z" fill="#FACFA7"/>
    <path d="M137.382 283.089C139.359 281.757 145.453 275.925 146.548 273.991C147.564 272.196 149.22 262.165 149.353 260.88C149.487 259.594 150.273 254.184 155.576 254.45C156.068 257.954 151.593 274.717 149.878 276.88C147.771 279.535 141.599 283.567 139.81 284.839C137.805 284.026 137.382 283.089 137.382 283.089Z" fill="#FFCEA2"/>
    <path d="M166.002 284.839C165.138 277.031 168.675 267.539 169.351 262.652C169.778 259.566 170.086 255.956 167.29 255.088C164.402 254.17 163.234 253.77 160.727 253.834C154.693 253.981 151.869 255.212 150.637 259.345C149.482 263.249 148.664 264.439 147.707 268.269C147.284 269.986 151.635 275.273 151.083 282.68C149.367 289.523 168.127 290.534 166.002 284.839Z" fill="url(#paint67_linear_1361_3042)"/>
    <path d="M162.87 246.5C162.765 244.663 156.432 248.337 156.556 250.776C156.671 252.769 156.928 254.771 156.183 255.028C155.319 255.653 153.842 259.823 155.392 261.366C160.782 259.162 162.493 256.93 167.29 255.088C165.326 254.689 163.215 252.502 162.87 246.5Z" fill="#FFCEA2"/>
    <path d="M148.838 290.258C146.424 291.944 145.761 290.906 144.469 291.485C143.428 291.99 142.434 292.586 141.498 293.266C141.038 293.57 142.565 293.514 143.209 293.266C141.737 294.493 141.608 296.1 141.884 296.821C142.202 297.648 144.281 298.429 144.763 297.969C146.769 296.036 146.419 295.273 149.16 294.557C150.144 294.3 151.552 292.862 151.552 292.862L148.838 290.258Z" fill="#FACFA7"/>
    <path d="M148.838 290.258C152.596 288.068 159.591 279.93 160.139 276.94C160.686 273.95 163.956 255.607 168.178 255.947C172.4 256.287 167.29 273.656 164.402 280.044C162.99 283.163 155.774 290.442 151.552 292.862C149.915 292.839 148.838 290.258 148.838 290.258ZM164.402 243.933L162.475 239.161L152.729 237.627C152.202 237.38 151.628 237.25 151.046 237.246C149.565 240.268 150.365 246.431 150.365 246.431C150.365 250.454 153.074 253.711 156.418 253.711C159.665 253.711 162.291 250.643 162.447 246.789H163.289L164.402 243.933Z" fill="#FFCEA2"/>
    <path d="M161.417 250.532C160.378 252.369 158.658 253.609 156.689 253.71C156.716 254.136 156.603 254.558 156.367 254.914C156.695 254.919 157.022 254.889 157.342 254.822C159.361 254.326 160.824 252.659 161.417 250.532Z" fill="#FBC096"/>
    <path d="M156.956 233.902C166.292 233.902 168.058 245.347 169.65 255.226C168.224 258.353 164.747 260.64 160.502 261.655C155.443 262.161 162.208 244.842 155.135 240.314C153.166 239.055 149.524 239.583 150.255 237.99C151.814 234.518 153.769 233.902 156.956 233.902Z" fill="url(#paint68_linear_1361_3042)"/>
    <path style="mix-blend-mode:multiply" d="M239.796 388.913C239.484 388.377 239.124 387.871 238.719 387.402C237.257 385.946 240.633 383.516 242.155 382.639C242.183 382.639 237.712 380.063 237.712 380.063H224.577C223.863 379.062 223.477 377.865 223.473 376.637H217.168C217.168 377.665 216.749 379.957 215.006 380.958C214.615 381.192 214.182 381.348 213.732 381.418C212.845 381.592 211.961 381.803 211.111 382.047H211C210.149 381.803 209.276 381.588 208.388 381.418C205.573 380.995 204.994 377.9 204.998 376.66H198.711C198.711 377.684 198.288 379.98 196.55 380.986C196.156 381.209 195.724 381.356 195.276 381.418C194.384 381.592 193.505 381.803 192.654 382.047C189.752 382.671 185.949 380.954 184.436 380.077L179.965 382.653C181.478 383.53 184.826 385.964 183.346 387.411C182.936 387.883 182.57 388.39 182.251 388.926C182.08 389.245 181.815 389.503 181.492 389.666C179.754 390.667 175.789 390.901 174.005 390.901V394.548C176.148 394.548 181.497 394.888 182.219 396.518C182.528 397.056 182.889 397.564 183.295 398.034C184.762 399.485 181.382 401.914 179.859 402.792L184.302 405.373C184.459 405.281 184.647 405.18 184.854 405.069L184.334 405.373H197.46C198.162 406.369 198.538 407.558 198.537 408.776H223.312L229.484 405.35H237.593L242.068 402.773C240.55 401.896 237.202 399.467 238.683 398.015C238.933 397.723 239.167 397.416 239.382 397.097H243.521L247.991 394.516L248.014 390.874C245.71 390.979 240.518 390.543 239.796 388.913Z" fill="url(#paint69_linear_1361_3042)"/>
    <path d="M183.7 375.911C183.7 374.496 181.198 372.696 179.951 371.989L179.979 382.621C181.23 383.346 183.727 385.128 183.732 386.543L183.7 375.911Z" fill="#F5F5FA"/>
    <path d="M223.712 382.621L223.68 371.989C222.42 372.714 219.881 374.515 219.886 375.929L219.918 386.561C219.913 385.147 222.447 383.351 223.712 382.621Z" fill="#B9BFE8"/>
    <path d="M193.919 388.127C198.297 385.601 205.362 385.601 209.712 388.127C211.874 389.381 212.955 391.021 212.959 392.665L212.927 382.028C212.927 380.389 211.842 378.745 209.68 377.496C205.334 374.97 198.265 374.97 193.887 377.496C191.688 378.763 190.589 380.426 190.594 382.088L190.626 392.72C190.621 391.057 191.721 389.395 193.919 388.127Z" fill="url(#paint70_linear_1361_3042)"/>
    <path d="M184.279 394.708L179.836 392.127L179.869 402.759L184.311 405.34L184.279 394.708Z" fill="#CCD2FA"/>
    <path d="M223.602 402.759L223.57 392.127L219.099 394.708L219.127 405.34L223.602 402.759Z" fill="#B9BFE8"/>
    <path d="M192.548 403.365C193.399 403.613 194.273 403.825 195.165 403.995C197.925 404.413 198.541 407.435 198.546 408.707L198.518 398.075C198.518 396.803 197.911 393.781 195.133 393.363C194.245 393.188 193.367 392.982 192.521 392.734C190.014 391.884 185.801 393.827 184.279 394.708L184.311 405.34C185.834 404.458 190.046 402.516 192.548 403.365Z" fill="url(#paint71_linear_1361_3042)"/>
    <path d="M207.022 404.427C207.413 404.205 207.842 404.058 208.287 403.995C209.184 403.82 210.048 403.614 210.904 403.37C213.424 402.516 217.614 404.459 219.127 405.341L219.099 394.709C217.586 393.827 213.392 391.884 210.876 392.739C210.021 392.982 209.151 393.198 208.259 393.363C207.813 393.426 207.382 393.573 206.99 393.795C205.274 394.782 204.911 397.046 204.814 398.121L204.847 408.753C204.943 407.678 205.307 405.414 207.022 404.427Z" fill="url(#paint72_linear_1361_3042)"/>
    <path d="M183.272 387.369C184.739 388.821 181.359 391.25 179.836 392.127L184.279 394.708C185.801 393.827 190.014 391.884 192.521 392.733C193.367 392.981 194.246 393.193 195.133 393.363C197.948 393.785 198.527 396.881 198.514 398.121H204.814C204.911 397.046 205.274 394.782 206.99 393.794C207.382 393.572 207.813 393.426 208.259 393.363C209.151 393.188 210.021 392.981 210.876 392.738C213.392 391.884 217.586 393.827 219.099 394.708L223.57 392.127C222.052 391.25 218.704 388.821 220.185 387.369C220.594 386.897 220.962 386.39 221.284 385.854C221.454 385.536 221.719 385.279 222.043 385.119C223.777 384.113 227.746 383.879 229.516 383.884V380.237C227.217 380.329 222.02 379.893 221.302 378.262C220.99 377.728 220.629 377.222 220.226 376.751C218.759 375.295 222.135 372.866 223.657 371.989L219.219 369.412C217.692 370.289 213.479 372.237 210.977 371.383C210.126 371.139 209.253 370.923 208.365 370.753C205.55 370.331 204.971 367.235 204.975 366H198.711C198.711 367.024 198.288 369.32 196.55 370.322C196.158 370.555 195.726 370.711 195.276 370.781C194.384 370.955 193.505 371.162 192.654 371.41C189.752 372.035 185.949 370.317 184.436 369.44L179.965 372.016C181.478 372.893 184.826 375.328 183.346 376.774C182.935 377.245 182.569 377.752 182.251 378.29C182.079 378.607 181.814 378.865 181.492 379.029C179.754 380.026 175.789 380.265 174.005 380.265V383.911C176.148 383.911 181.497 384.251 182.219 385.881C182.524 386.408 182.876 386.906 183.272 387.369ZM193.887 377.495C198.265 374.969 205.334 374.969 209.68 377.495C214.027 380.021 214.008 384.104 209.63 386.63C205.251 389.156 198.187 389.147 193.841 386.63C189.495 384.113 189.513 380.017 193.887 377.518V377.495Z" fill="#F6F6FB"/>
    <path d="M179.855 392.128C181.377 391.25 184.757 388.821 183.29 387.37C182.885 386.899 182.525 386.392 182.214 385.854C181.492 384.224 176.143 383.879 174 383.884L174.028 394.511C175.99 394.505 177.948 394.716 179.864 395.14L179.855 392.128Z" fill="#CCD2FA"/>
    <path d="M204.846 408.752L204.814 398.121H198.513L198.546 408.757L204.846 408.752Z" fill="#B9BFE8"/>
    <path d="M229.549 394.511L229.516 383.884C227.746 383.884 223.777 384.113 222.043 385.119C221.719 385.279 221.454 385.536 221.284 385.854C220.962 386.39 220.594 386.897 220.185 387.37C218.704 388.821 222.052 391.25 223.57 392.128V395.182C225.53 394.73 227.536 394.505 229.549 394.511Z" fill="url(#paint73_linear_1361_3042)"/>
    <path style="mix-blend-mode:multiply" d="M99.0973 195.892L71.656 180.071C69.3904 178.765 65.6844 178.765 63.418 180.071L36.4154 195.639C34.1499 196.945 34.1503 199.082 36.4145 200.389L59.0377 213.432V217.184H67.7564V217.178C69.2625 217.244 70.7594 216.91 72.0943 216.21L99.0987 200.642C101.364 199.336 101.363 197.199 99.0968 195.893L99.0973 195.892Z" fill="url(#paint74_linear_1361_3042)"/>
    <path d="M63.378 211.119C61.1124 212.425 57.4055 212.424 55.1395 211.119L27.6982 195.297C25.434 193.99 25.4336 191.854 27.6991 190.547L54.7012 174.98C56.9677 173.673 60.6737 173.673 62.9392 174.98L90.3805 190.801C92.6465 192.107 92.6474 194.244 90.3824 195.55L63.378 211.119Z" fill="#F1F1F6"/>
    <path d="M26.0033 197.922L26.0079 197.922C25.9665 198.814 26.5258 199.712 27.7 200.389L55.1408 216.21C57.4064 217.517 61.1133 217.516 63.3788 216.21L90.3809 200.642C91.5675 199.958 92.1258 199.047 92.0697 198.149V193.294C92.0201 194.115 91.4626 194.927 90.3823 195.549L63.3779 211.118C61.1124 212.425 57.4055 212.424 55.1394 211.118L41.4188 203.207L27.6981 195.297C26.5801 194.651 26.0153 193.803 26.002 192.953L26.0033 197.922Z" fill="url(#paint75_linear_1361_3042)"/>
    <g style="mix-blend-mode:multiply">
        <path d="M56.8195 192.184C56.4309 191.088 57.0274 189.853 58.6026 188.945C60.9941 187.565 64.6997 187.469 66.8834 188.727C69.0629 189.984 68.8923 192.124 66.5016 193.502C64.78 194.412 62.8192 194.77 60.8865 194.527C63.1005 197.1 62.349 199.984 60.0003 201.336C59.4346 201.005 52.5078 197.014 52.5078 197.014L45.0098 192.693C47.3553 191.339 52.3574 190.906 56.8195 192.184Z" fill="#D1D7F3"/>
    </g>
    <path style="mix-blend-mode:multiply" d="M0 326.949C0.00499009 327.904 0.251572 328.842 0.716878 329.677C1.18218 330.511 1.85112 331.214 2.66153 331.722L6.49401 333.931L7.23264 334.982C7.32361 335.096 7.43655 335.189 7.56469 335.258C7.56469 335.258 17.8015 341.162 17.853 341.187C17.986 341.262 18.1358 341.302 18.2885 341.303C18.4412 341.305 18.5918 341.268 18.7264 341.196L121.026 400.175L137.017 405.176L130.902 395.716L23.6677 330.278L23.183 329.588C23.0897 329.47 22.9716 329.373 22.8371 329.305C22.8371 329.305 12.6201 323.412 12.5511 323.379C12.4184 323.305 12.2691 323.265 12.1171 323.264C11.965 323.264 11.8153 323.301 11.6818 323.374L11.1368 323.69C9.94566 323.004 8.6257 322.247 8.20856 322.005C7.41838 321.554 6.51979 321.328 5.61005 321.351C4.87354 321.35 4.14413 321.495 3.46354 321.776C2.78295 322.057 2.16451 322.469 1.64353 322.989C1.12255 323.509 0.709245 324.126 0.427241 324.805C0.145237 325.485 6.02606e-05 326.213 0 326.949V326.949Z" fill="url(#paint76_linear_1361_3042)"/>
    <path d="M11.9876 320.001C12.8969 319.98 13.795 320.205 14.5861 320.654C15.0957 320.947 16.929 322.005 18.2508 322.766C17.8977 322.873 17.5581 323.021 17.2389 323.206C14.737 324.651 12.7102 328.156 12.7102 331.04C12.7049 331.593 12.8054 332.142 13.0063 332.658L9.04141 330.372C8.23028 329.865 7.56081 329.162 7.09541 328.327C6.63002 327.493 6.38386 326.554 6.37988 325.599C6.38049 324.114 6.97157 322.69 8.02316 321.641C9.07475 320.591 10.5008 320.001 11.9876 320.001Z" fill="url(#paint77_linear_1361_3042)"/>
    <path d="M138.482 396.768C138.055 397.046 137.7 397.421 137.446 397.862C137.191 398.302 137.044 398.797 137.017 399.305C137.017 399.87 137.264 400.228 137.631 400.318L127.408 398.825L125.22 395.72L127.408 390.095L131.775 387.576L139.633 396.764C139.467 396.638 139.265 396.571 139.057 396.572C138.849 396.573 138.647 396.642 138.482 396.768Z" fill="url(#paint78_linear_1361_3042)"/>
    <path d="M138.482 396.768C138.647 396.642 138.849 396.573 139.057 396.572C139.265 396.571 139.467 396.638 139.633 396.764L139.754 396.903L143.394 401.16L137.737 400.331L137.631 400.317C137.264 400.228 137.017 399.87 137.017 399.305C137.044 398.797 137.191 398.302 137.446 397.862C137.7 397.421 138.055 397.046 138.482 396.768Z" fill="url(#paint79_linear_1361_3042)"/>
    <path d="M28.6721 337.791C29.108 337.51 29.4532 337.109 29.666 336.637L31.4389 332.072C31.5146 331.838 31.5381 331.591 31.5078 331.348C31.4776 331.105 31.3942 330.871 31.2637 330.663L29.5607 328.238C29.4308 328.061 29.2412 327.938 29.0269 327.89C28.8127 327.842 28.5884 327.874 28.3957 327.978L24.8327 330.031C24.3972 330.313 24.0533 330.715 23.843 331.189L22.07 335.752C21.9935 335.986 21.9694 336.234 21.9992 336.478C22.0291 336.722 22.1123 336.957 22.2429 337.166L23.9437 339.588C24.0738 339.765 24.2636 339.888 24.4778 339.935C24.6921 339.982 24.9162 339.951 25.1087 339.845L28.6721 337.791Z" fill="#CED3F8"/>
    <path d="M22.3823 336.431L125.22 395.72L127.408 390.095L24.5678 330.809L22.3823 336.431Z" fill="#FFA028"/>
    <path d="M24.5678 339.536L127.408 398.825L125.22 395.72L22.3823 336.431L24.5678 339.536Z" fill="#FF8F28"/>
    <path d="M24.5679 330.808L127.408 390.095L131.775 387.576L28.9366 328.288L24.5679 330.808Z" fill="#FFD130"/>
    <path d="M11.7365 329.793L13.5072 325.233C13.7189 324.759 14.0641 324.356 14.5006 324.075L18.0599 322.022C18.1938 321.951 18.3435 321.914 18.4952 321.916C18.647 321.917 18.7959 321.957 18.9282 322.031C18.9977 322.063 29.2147 327.955 29.2147 327.955C29.0853 327.898 28.9445 327.87 28.8028 327.874C28.661 327.878 28.522 327.913 28.3961 327.978L24.8326 330.031C24.3971 330.313 24.0532 330.715 23.8429 331.189L22.0699 335.752C21.9934 335.986 21.9693 336.234 21.9992 336.478C22.029 336.722 22.1122 336.957 22.2428 337.165L23.9436 339.588C24.0085 339.676 24.0884 339.752 24.1795 339.812L13.94 333.91C13.8122 333.841 13.7006 333.745 13.6125 333.63L11.9072 331.209C11.7779 331 11.6957 330.764 11.6663 330.52C11.6368 330.276 11.6608 330.028 11.7365 329.793Z" fill="url(#paint80_linear_1361_3042)"/>
    <path style="mix-blend-mode:multiply" d="M22.6848 338.95C22.5928 338.891 22.5134 338.815 22.4511 338.725L20.748 336.305C20.6178 336.096 20.5351 335.862 20.5057 335.617C20.4763 335.373 20.5009 335.125 20.5779 334.892L22.3481 330.331C22.5581 329.856 22.903 329.454 23.3401 329.173L26.9013 327.123C27.0246 327.055 27.1623 327.019 27.3028 327.015C27.4434 327.012 27.5826 327.043 27.7089 327.104C27.725 327.096 28.4539 327.517 28.4539 327.517C28.3243 327.459 28.1833 327.432 28.0415 327.436C27.8997 327.441 27.7608 327.478 27.6353 327.544L24.0714 329.594C23.636 329.877 23.2916 330.279 23.0798 330.753L21.3092 335.315C21.2332 335.549 21.209 335.796 21.2384 336.04C21.2678 336.283 21.35 336.518 21.4793 336.727L23.1856 339.151C23.2488 339.239 23.3277 339.315 23.4183 339.375L22.6848 338.95Z" fill="url(#paint81_linear_1361_3042)"/>
    <path style="mix-blend-mode:multiply" d="M21.1434 338.057C21.0496 337.999 20.9687 337.923 20.9056 337.833L19.2067 335.413C19.0755 335.205 18.992 334.97 18.9621 334.726C18.9322 334.482 18.9566 334.235 19.0337 334.001L20.8044 329.436C21.0172 328.964 21.3615 328.563 21.7964 328.28L25.3576 326.23C25.4815 326.163 25.6195 326.127 25.7604 326.124C25.9012 326.121 26.0407 326.151 26.1675 326.212C26.179 326.203 26.9125 326.627 26.9125 326.627C26.7831 326.569 26.6422 326.541 26.5003 326.545C26.3585 326.549 26.2195 326.586 26.0939 326.651L22.53 328.704C22.094 328.986 21.7488 329.387 21.5361 329.86L19.7632 334.423C19.6869 334.657 19.6631 334.905 19.6933 335.15C19.7235 335.395 19.807 335.63 19.9379 335.839L21.6415 338.259C21.7039 338.349 21.784 338.425 21.8769 338.483L21.1434 338.057Z" fill="url(#paint82_linear_1361_3042)"/>
    <path style="mix-blend-mode:multiply" d="M19.5992 337.17C19.5067 337.112 19.4266 337.035 19.3637 336.946L17.6584 334.526C17.5288 334.316 17.4462 334.081 17.4164 333.837C17.3865 333.592 17.4101 333.344 17.4854 333.11L19.2584 328.548C19.4722 328.075 19.817 327.674 20.2518 327.391L23.8134 325.339C23.937 325.272 24.0747 325.235 24.2153 325.232C24.3558 325.229 24.495 325.259 24.6215 325.321C24.6325 325.314 25.3688 325.737 25.3688 325.737C25.2385 325.679 25.0968 325.651 24.9541 325.656C24.8115 325.66 24.6717 325.696 24.5451 325.762L20.9858 327.817C20.549 328.096 20.2035 328.496 19.992 328.969L18.219 333.536C18.143 333.769 18.1191 334.017 18.1489 334.261C18.1788 334.504 18.2617 334.739 18.3919 334.947L20.095 337.369C20.1587 337.458 20.2388 337.533 20.3309 337.591L19.5992 337.17Z" fill="url(#paint83_linear_1361_3042)"/>
    <defs>
        <linearGradient id="paint0_linear_1361_3042" x1="275.655" y1="352.91" x2="440.414" y2="177.33" gradientUnits="userSpaceOnUse">
            <stop stop-color="#C2C8E6"/>
            <stop offset="0.54" stop-color="#E5E8F5"/>
            <stop offset="1" stop-color="white"/>
        </linearGradient>
        <linearGradient id="paint1_linear_1361_3042" x1="235.565" y1="308.936" x2="263.96" y2="308.936" gradientUnits="userSpaceOnUse">
            <stop offset="0.43" stop-color="#C4C9E4"/>
            <stop offset="0.58" stop-color="#D7DAED"/>
            <stop offset="0.85" stop-color="#F4F5FA"/>
            <stop offset="1" stop-color="white"/>
        </linearGradient>
        <linearGradient id="paint2_linear_1361_3042" x1="229.305" y1="310.617" x2="257.714" y2="310.617" gradientUnits="userSpaceOnUse">
            <stop offset="0.345" stop-color="#8F7DFB"/>
            <stop offset="1" stop-color="#3B1992"/>
        </linearGradient>
        <linearGradient id="paint3_linear_1361_3042" x1="410.781" y1="71.5181" x2="487.027" y2="48.0382" gradientUnits="userSpaceOnUse">
            <stop stop-color="#7139FF"/>
            <stop offset="1" stop-color="#8F7DFB"/>
        </linearGradient>
        <linearGradient id="paint4_linear_1361_3042" x1="436.722" y1="72.6168" x2="455.682" y2="39.7284" gradientUnits="userSpaceOnUse">
            <stop/>
            <stop offset="0.42" stop-color="#5D3C00"/>
            <stop offset="1" stop-color="#E19100"/>
        </linearGradient>
        <linearGradient id="paint5_linear_1361_3042" x1="243.517" y1="214.177" x2="330.579" y2="214.177" gradientUnits="userSpaceOnUse">
            <stop stop-color="#C2C8E6"/>
            <stop offset="0.28" stop-color="#D7DBEF"/>
            <stop offset="0.74" stop-color="#F4F5FB"/>
            <stop offset="1" stop-color="white"/>
        </linearGradient>
        <linearGradient id="paint6_linear_1361_3042" x1="252.554" y1="275.847" x2="330.579" y2="275.847" gradientUnits="userSpaceOnUse">
            <stop stop-color="#C2C8E6"/>
            <stop offset="0.28" stop-color="#D7DBEF"/>
            <stop offset="0.74" stop-color="#F4F5FB"/>
            <stop offset="1" stop-color="white"/>
        </linearGradient>
        <linearGradient id="paint7_linear_1361_3042" x1="333.136" y1="275.103" x2="434.52" y2="275.103" gradientUnits="userSpaceOnUse">
            <stop stop-color="#C2C8E6"/>
            <stop offset="0.28" stop-color="#D7DBEF"/>
            <stop offset="0.74" stop-color="#F4F5FB"/>
            <stop offset="1" stop-color="white"/>
        </linearGradient>
        <linearGradient id="paint8_linear_1361_3042" x1="341.681" y1="214.926" x2="434.519" y2="214.926" gradientUnits="userSpaceOnUse">
            <stop stop-color="#C2C8E6"/>
            <stop offset="0.28" stop-color="#D7DBEF"/>
            <stop offset="0.74" stop-color="#F4F5FB"/>
            <stop offset="1" stop-color="white"/>
        </linearGradient>
        <linearGradient id="paint9_linear_1361_3042" x1="347.853" y1="219.748" x2="347.853" y2="115.8" gradientUnits="userSpaceOnUse">
            <stop offset="0.25" stop-color="#FF8F28"/>
            <stop offset="0.71" stop-color="#FFA028"/>
            <stop offset="1" stop-color="#FFD130"/>
        </linearGradient>
        <linearGradient id="paint10_linear_1361_3042" x1="237.556" y1="219.748" x2="237.556" y2="115.8" gradientUnits="userSpaceOnUse">
            <stop offset="0.25" stop-color="#FF8F28"/>
            <stop offset="0.53" stop-color="#FFA028"/>
            <stop offset="0.83" stop-color="#FFB628"/>
            <stop offset="1" stop-color="#FFD130"/>
        </linearGradient>
        <linearGradient id="paint11_linear_1361_3042" x1="259.683" y1="220.277" x2="325.727" y2="220.277" gradientUnits="userSpaceOnUse">
            <stop stop-color="#FFB628"/>
            <stop offset="0.4" stop-color="#FFA028"/>
            <stop offset="1" stop-color="#FF8F28"/>
        </linearGradient>
        <linearGradient id="paint12_linear_1361_3042" x1="262.594" y1="219.652" x2="325.727" y2="219.652" gradientUnits="userSpaceOnUse">
            <stop stop-color="#C2C9EB"/>
            <stop offset="0.24" stop-color="#CAD0EE"/>
            <stop offset="0.61" stop-color="#E1E4F5"/>
            <stop offset="1" stop-color="white"/>
        </linearGradient>
        <linearGradient id="paint13_linear_1361_3042" x1="233.141" y1="118.721" x2="352.268" y2="118.721" gradientUnits="userSpaceOnUse">
            <stop stop-color="#F0F0F5"/>
            <stop offset="0.28" stop-color="#E5E6F2"/>
            <stop offset="0.78" stop-color="#C8CCEC"/>
            <stop offset="1" stop-color="#B9BFE8"/>
        </linearGradient>
        <linearGradient id="paint14_linear_1361_3042" x1="264.682" y1="39.673" x2="320.727" y2="39.673" gradientUnits="userSpaceOnUse">
            <stop stop-color="#FFD130"/>
            <stop offset="0.29" stop-color="#FFB628"/>
            <stop offset="0.87" stop-color="#FFA028"/>
            <stop offset="1" stop-color="#FF8F28"/>
        </linearGradient>
        <linearGradient id="paint15_linear_1361_3042" x1="251.961" y1="173.68" x2="286.946" y2="225.884" gradientUnits="userSpaceOnUse">
            <stop stop-color="#D1D7F3"/>
            <stop offset="0.1" stop-color="#D7DCF5"/>
            <stop offset="0.67" stop-color="#F4F6FC"/>
            <stop offset="1" stop-color="white"/>
        </linearGradient>
        <linearGradient id="paint16_linear_1361_3042" x1="341.897" y1="270.216" x2="341.897" y2="167.448" gradientUnits="userSpaceOnUse">
            <stop stop-color="#FF8F28"/>
            <stop offset="1" stop-color="#FFA028"/>
        </linearGradient>
        <linearGradient id="paint17_linear_1361_3042" x1="328.491" y1="178.718" x2="346.064" y2="217.59" gradientUnits="userSpaceOnUse">
            <stop stop-color="#DAE0F5"/>
            <stop offset="0.51" stop-color="#EAEDF8"/>
            <stop offset="1" stop-color="#F5F5FA"/>
        </linearGradient>
        <linearGradient id="paint18_linear_1361_3042" x1="346.611" y1="181.459" x2="346.699" y2="181.459" gradientUnits="userSpaceOnUse">
            <stop stop-color="#B9BFE8"/>
            <stop offset="0.22" stop-color="#C8CCEC"/>
            <stop offset="0.72" stop-color="#E5E6F2"/>
            <stop offset="1" stop-color="#F0F0F5"/>
        </linearGradient>
        <linearGradient id="paint19_linear_1361_3042" x1="243.512" y1="270.216" x2="243.512" y2="167.448" gradientUnits="userSpaceOnUse">
            <stop stop-color="#FFA028"/>
            <stop offset="1" stop-color="#FFB628"/>
        </linearGradient>
        <linearGradient id="paint20_linear_1361_3042" x1="262.439" y1="149.333" x2="262.439" y2="96.1788" gradientUnits="userSpaceOnUse">
            <stop stop-color="#D1D7F3"/>
            <stop offset="1" stop-color="white"/>
        </linearGradient>
        <linearGradient id="paint21_linear_1361_3042" x1="260.239" y1="147.69" x2="272.564" y2="97.2739" gradientUnits="userSpaceOnUse">
            <stop stop-color="#A3A9D0"/>
            <stop offset="0.67" stop-color="#BBC0E6"/>
            <stop offset="1" stop-color="#F6F6FB"/>
        </linearGradient>
        <linearGradient id="paint22_linear_1361_3042" x1="247.058" y1="137.904" x2="254.924" y2="98.9586" gradientUnits="userSpaceOnUse">
            <stop stop-color="#CED3F8"/>
            <stop offset="0.34" stop-color="#C3C8EE"/>
            <stop offset="0.94" stop-color="#A6ACD3"/>
            <stop offset="1" stop-color="#A3A9D0"/>
        </linearGradient>
        <linearGradient id="paint23_linear_1361_3042" x1="248.231" y1="137.876" x2="256.055" y2="99.1379" gradientUnits="userSpaceOnUse">
            <stop stop-color="white"/>
            <stop offset="1" stop-color="#CFD6F5"/>
        </linearGradient>
        <linearGradient id="paint24_linear_1361_3042" x1="248.815" y1="135.667" x2="273.889" y2="112.926" gradientUnits="userSpaceOnUse">
            <stop stop-color="#7139FF"/>
            <stop offset="1" stop-color="#8F7DFB"/>
        </linearGradient>
        <linearGradient id="paint25_linear_1361_3042" x1="375.453" y1="255.465" x2="409.105" y2="255.465" gradientUnits="userSpaceOnUse">
            <stop stop-color="#C2C9EB"/>
            <stop offset="0.21" stop-color="#D2D7F0"/>
            <stop offset="0.72" stop-color="#F3F4FB"/>
            <stop offset="1" stop-color="white"/>
        </linearGradient>
        <linearGradient id="paint26_linear_1361_3042" x1="188.414" y1="199.234" x2="217.729" y2="199.234" gradientUnits="userSpaceOnUse">
            <stop stop-color="#C2C9EB"/>
            <stop offset="0.21" stop-color="#D2D7F0"/>
            <stop offset="0.72" stop-color="#F3F4FB"/>
            <stop offset="1" stop-color="white"/>
        </linearGradient>
        <linearGradient id="paint27_linear_1361_3042" x1="422.723" y1="237.324" x2="464.064" y2="237.324" gradientUnits="userSpaceOnUse">
            <stop stop-color="#C2C9EB"/>
            <stop offset="0.11" stop-color="#CED3EF"/>
            <stop offset="0.42" stop-color="#E9EBF8"/>
            <stop offset="0.69" stop-color="#F9FAFD"/>
            <stop offset="0.9" stop-color="white"/>
        </linearGradient>
        <linearGradient id="paint28_linear_1361_3042" x1="434.382" y1="223.569" x2="469.041" y2="223.569" gradientUnits="userSpaceOnUse">
            <stop stop-color="#C2C9EB"/>
            <stop offset="0.11" stop-color="#CED3EF"/>
            <stop offset="0.42" stop-color="#E9EBF8"/>
            <stop offset="0.69" stop-color="#F9FAFD"/>
            <stop offset="0.9" stop-color="white"/>
        </linearGradient>
        <linearGradient id="paint29_linear_1361_3042" x1="434.06" y1="226.697" x2="440.336" y2="212.853" gradientUnits="userSpaceOnUse">
            <stop stop-color="#7139FF"/>
            <stop offset="0.5" stop-color="#3B1992"/>
            <stop offset="1" stop-color="#3B1992"/>
        </linearGradient>
        <linearGradient id="paint30_linear_1361_3042" x1="433.397" y1="226.247" x2="437.549" y2="212.792" gradientUnits="userSpaceOnUse">
            <stop stop-color="#443BB5"/>
            <stop offset="0.5" stop-color="#332793"/>
            <stop offset="1" stop-color="#231574"/>
        </linearGradient>
        <linearGradient id="paint31_linear_1361_3042" x1="427.68" y1="239.808" x2="422.543" y2="233.689" gradientUnits="userSpaceOnUse">
            <stop stop-color="#3B1992"/>
            <stop offset="0.5" stop-color="#3B1992"/>
            <stop offset="1" stop-color="#7139FF"/>
        </linearGradient>
        <linearGradient id="paint32_linear_1361_3042" x1="429.69" y1="238.041" x2="424.175" y2="232.476" gradientUnits="userSpaceOnUse">
            <stop stop-color="#231574"/>
            <stop offset="0.5" stop-color="#332793"/>
            <stop offset="1" stop-color="#443BB5"/>
        </linearGradient>
        <linearGradient id="paint33_linear_1361_3042" x1="420.28" y1="198.93" x2="437.699" y2="203.038" gradientUnits="userSpaceOnUse">
            <stop stop-color="#7139FF"/>
            <stop offset="0.65" stop-color="#3B1992"/>
            <stop offset="1" stop-color="#3B1992"/>
        </linearGradient>
        <linearGradient id="paint34_linear_1361_3042" x1="422.221" y1="142.956" x2="411.147" y2="142.956" gradientUnits="userSpaceOnUse">
            <stop stop-color="#6D64F0"/>
            <stop offset="1" stop-color="#817AFF"/>
        </linearGradient>
        <linearGradient id="paint35_linear_1361_3042" x1="440.977" y1="152.99" x2="413.354" y2="152.99" gradientUnits="userSpaceOnUse">
            <stop stop-color="#3B1992"/>
            <stop offset="1" stop-color="#7139FF"/>
        </linearGradient>
        <linearGradient id="paint36_linear_1361_3042" x1="406.787" y1="135.791" x2="406.787" y2="144.544" gradientUnits="userSpaceOnUse">
            <stop stop-color="#E6ECF9"/>
            <stop offset="0.52" stop-color="#F6F8FD"/>
            <stop offset="1" stop-color="white"/>
        </linearGradient>
        <linearGradient id="paint37_linear_1361_3042" x1="383.966" y1="145.849" x2="400.182" y2="145.849" gradientUnits="userSpaceOnUse">
            <stop stop-color="#E6ECF9"/>
            <stop offset="0.14" stop-color="#BCC0CB"/>
            <stop offset="0.38" stop-color="#7A7D84"/>
            <stop offset="0.59" stop-color="#45474B"/>
            <stop offset="0.77" stop-color="#202022"/>
            <stop offset="0.91" stop-color="#090909"/>
            <stop offset="1"/>
        </linearGradient>
        <linearGradient id="paint38_linear_1361_3042" x1="429.608" y1="155.006" x2="413.529" y2="155.006" gradientUnits="userSpaceOnUse">
            <stop stop-color="#E6ECF9"/>
            <stop offset="0.03" stop-color="#DCE2EF"/>
            <stop offset="0.23" stop-color="#9FA4AE"/>
            <stop offset="0.43" stop-color="#6B7178"/>
            <stop offset="0.61" stop-color="#43494D"/>
            <stop offset="0.77" stop-color="#272C2F"/>
            <stop offset="0.9" stop-color="#151A1D"/>
            <stop offset="1" stop-color="#0F1416"/>
        </linearGradient>
        <linearGradient id="paint39_linear_1361_3042" x1="441.202" y1="149.243" x2="418.777" y2="149.243" gradientUnits="userSpaceOnUse">
            <stop stop-color="#7139FF"/>
            <stop offset="0.04" stop-color="#7139FF"/>
            <stop offset="0.39" stop-color="#8F7DFB"/>
            <stop offset="0.72" stop-color="#8F7DFB"/>
            <stop offset="1" stop-color="#8F7DFB"/>
        </linearGradient>
        <linearGradient id="paint40_linear_1361_3042" x1="357.047" y1="396.465" x2="405.232" y2="396.465" gradientUnits="userSpaceOnUse">
            <stop stop-color="#C2C9EB"/>
            <stop offset="0.11" stop-color="#CED3EF"/>
            <stop offset="0.42" stop-color="#E9EBF8"/>
            <stop offset="0.69" stop-color="#F9FAFD"/>
            <stop offset="0.9" stop-color="white"/>
        </linearGradient>
        <linearGradient id="paint41_linear_1361_3042" x1="361.457" y1="399.879" x2="353.035" y2="393.441" gradientUnits="userSpaceOnUse">
            <stop stop-color="#362E94"/>
            <stop offset="0.58" stop-color="#4842B3"/>
            <stop offset="1" stop-color="#5652CC"/>
        </linearGradient>
        <linearGradient id="paint42_linear_1361_3042" x1="369.312" y1="404.376" x2="360.89" y2="397.937" gradientUnits="userSpaceOnUse">
            <stop stop-color="#362E94"/>
            <stop offset="0.58" stop-color="#4842B3"/>
            <stop offset="1" stop-color="#5652CC"/>
        </linearGradient>
        <linearGradient id="paint43_linear_1361_3042" x1="353.054" y1="326.524" x2="383.041" y2="326.524" gradientUnits="userSpaceOnUse">
            <stop offset="0.25" stop-color="white"/>
            <stop offset="0.61" stop-color="#EAECFC"/>
            <stop offset="1" stop-color="#CED3F8"/>
        </linearGradient>
        <linearGradient id="paint44_linear_1361_3042" x1="389.866" y1="286.854" x2="360.302" y2="286.854" gradientUnits="userSpaceOnUse">
            <stop offset="0.54" stop-color="#3B1992"/>
            <stop offset="1" stop-color="#7139FF"/>
        </linearGradient>
        <linearGradient id="paint45_linear_1361_3042" x1="338.87" y1="391.774" x2="366.761" y2="391.774" gradientUnits="userSpaceOnUse">
            <stop stop-color="#C2C9EB"/>
            <stop offset="0.11" stop-color="#CED3EF"/>
            <stop offset="0.42" stop-color="#E9EBF8"/>
            <stop offset="0.69" stop-color="#F9FAFD"/>
            <stop offset="0.9" stop-color="white"/>
        </linearGradient>
        <linearGradient id="paint46_linear_1361_3042" x1="326.192" y1="384.382" x2="354.079" y2="384.382" gradientUnits="userSpaceOnUse">
            <stop stop-color="#C2C9EB"/>
            <stop offset="0.11" stop-color="#CED3EF"/>
            <stop offset="0.42" stop-color="#E9EBF8"/>
            <stop offset="0.69" stop-color="#F9FAFD"/>
            <stop offset="0.9" stop-color="white"/>
        </linearGradient>
        <linearGradient id="paint47_linear_1361_3042" x1="333.61" y1="383.404" x2="323.332" y2="383.404" gradientUnits="userSpaceOnUse">
            <stop stop-color="#20196F"/>
            <stop offset="0.35" stop-color="#363094"/>
            <stop offset="0.78" stop-color="#4D49BD"/>
            <stop offset="1" stop-color="#5652CC"/>
        </linearGradient>
        <linearGradient id="paint48_linear_1361_3042" x1="346.32" y1="390.792" x2="336.042" y2="390.792" gradientUnits="userSpaceOnUse">
            <stop stop-color="#20196F"/>
            <stop offset="0.35" stop-color="#363094"/>
            <stop offset="0.78" stop-color="#4D49BD"/>
            <stop offset="1" stop-color="#5652CC"/>
        </linearGradient>
        <linearGradient id="paint49_linear_1361_3042" x1="341.857" y1="366.264" x2="324.185" y2="366.264" gradientUnits="userSpaceOnUse">
            <stop offset="0.665" stop-color="#3B1992"/>
            <stop offset="1" stop-color="#7139FF"/>
        </linearGradient>
        <linearGradient id="paint50_linear_1361_3042" x1="324.081" y1="334.595" x2="342.54" y2="334.595" gradientUnits="userSpaceOnUse">
            <stop stop-color="#FFD130"/>
            <stop offset="0.52" stop-color="#FFA028"/>
            <stop offset="1" stop-color="#FF8F28"/>
        </linearGradient>
        <linearGradient id="paint51_linear_1361_3042" x1="336.766" y1="331.455" x2="350.355" y2="331.455" gradientUnits="userSpaceOnUse">
            <stop stop-color="#FFB628"/>
            <stop offset="0.77" stop-color="#FF8F28"/>
            <stop offset="1" stop-color="#FF8F28"/>
        </linearGradient>
        <linearGradient id="paint52_linear_1361_3042" x1="432.888" y1="392.361" x2="464.199" y2="392.361" gradientUnits="userSpaceOnUse">
            <stop offset="0.43" stop-color="#C2C8E6"/>
            <stop offset="0.59" stop-color="#D7DBEF"/>
            <stop offset="0.85" stop-color="#F4F5FB"/>
            <stop offset="1" stop-color="white"/>
        </linearGradient>
        <linearGradient id="paint53_linear_1361_3042" x1="425.985" y1="394.212" x2="457.31" y2="394.212" gradientUnits="userSpaceOnUse">
            <stop stop-color="#FFD130"/>
            <stop offset="1" stop-color="#FF8F28"/>
        </linearGradient>
        <linearGradient id="paint54_linear_1361_3042" x1="540.475" y1="309.713" x2="586.697" y2="309.713" gradientUnits="userSpaceOnUse">
            <stop stop-color="#C2C8E6"/>
            <stop offset="1" stop-color="white"/>
        </linearGradient>
        <linearGradient id="paint55_linear_1361_3042" x1="531.235" y1="305.749" x2="573.18" y2="305.749" gradientUnits="userSpaceOnUse">
            <stop stop-color="#8F7DFB"/>
            <stop offset="1" stop-color="#3B1992"/>
        </linearGradient>
        <linearGradient id="paint56_linear_1361_3042" x1="531.235" y1="313.745" x2="573.18" y2="313.745" gradientUnits="userSpaceOnUse">
            <stop stop-color="#8F7DFB"/>
            <stop offset="1" stop-color="#3B1992"/>
        </linearGradient>
        <linearGradient id="paint57_linear_1361_3042" x1="112.799" y1="73.4328" x2="142.152" y2="22.5244" gradientUnits="userSpaceOnUse">
            <stop offset="0.01" stop-color="#FFA028"/>
            <stop offset="1" stop-color="#FFD130"/>
        </linearGradient>
        <linearGradient id="paint58_linear_1361_3042" x1="144.064" y1="60.5779" x2="131.686" y2="41.1123" gradientUnits="userSpaceOnUse">
            <stop offset="0.01" stop-color="#423EAF"/>
            <stop offset="1" stop-color="#6B67E9"/>
        </linearGradient>
        <linearGradient id="paint59_linear_1361_3042" x1="110.914" y1="337.571" x2="151.63" y2="337.571" gradientUnits="userSpaceOnUse">
            <stop stop-color="#C2C9EB"/>
            <stop offset="0.11" stop-color="#CED3EF"/>
            <stop offset="0.42" stop-color="#E9EBF8"/>
            <stop offset="0.69" stop-color="#F9FAFD"/>
            <stop offset="0.9" stop-color="white"/>
        </linearGradient>
        <linearGradient id="paint60_linear_1361_3042" x1="106.922" y1="330.205" x2="147.638" y2="330.205" gradientUnits="userSpaceOnUse">
            <stop stop-color="#C2C9EB"/>
            <stop offset="0.11" stop-color="#CED3EF"/>
            <stop offset="0.42" stop-color="#E9EBF8"/>
            <stop offset="0.69" stop-color="#F9FAFD"/>
            <stop offset="0.9" stop-color="white"/>
        </linearGradient>
        <linearGradient id="paint61_linear_1361_3042" x1="139.024" y1="298.249" x2="189.992" y2="298.249" gradientUnits="userSpaceOnUse">
            <stop stop-color="#D1D7F3"/>
            <stop offset="0.21" stop-color="#DBE0F6"/>
            <stop offset="1" stop-color="white"/>
        </linearGradient>
        <linearGradient id="paint62_linear_1361_3042" x1="146.902" y1="326.338" x2="146.902" y2="292.835" gradientUnits="userSpaceOnUse">
            <stop stop-color="white"/>
            <stop offset="0.79" stop-color="#DBE0F6"/>
            <stop offset="1" stop-color="#D1D7F3"/>
        </linearGradient>
        <linearGradient id="paint63_linear_1361_3042" x1="92.5539" y1="328.615" x2="110.399" y2="328.615" gradientUnits="userSpaceOnUse">
            <stop stop-color="#5652CC"/>
            <stop offset="0.63" stop-color="#322C8E"/>
            <stop offset="1" stop-color="#20196F"/>
        </linearGradient>
        <linearGradient id="paint64_linear_1361_3042" x1="116.934" y1="338.765" x2="110.897" y2="334.137" gradientUnits="userSpaceOnUse">
            <stop stop-color="#20196F"/>
            <stop offset="0.37" stop-color="#322C8E"/>
            <stop offset="1" stop-color="#5652CC"/>
        </linearGradient>
        <linearGradient id="paint65_linear_1361_3042" x1="152.476" y1="280.724" x2="107.603" y2="326.333" gradientUnits="userSpaceOnUse">
            <stop stop-color="#20196F"/>
            <stop offset="1" stop-color="#423EAF"/>
        </linearGradient>
        <linearGradient id="paint66_linear_1361_3042" x1="121.059" y1="298.433" x2="162.732" y2="298.433" gradientUnits="userSpaceOnUse">
            <stop offset="0.56" stop-color="#A3A9CA"/>
            <stop offset="0.61" stop-color="#CCD0F2"/>
        </linearGradient>
        <linearGradient id="paint67_linear_1361_3042" x1="147.679" y1="271.181" x2="169.631" y2="271.181" gradientUnits="userSpaceOnUse">
            <stop stop-color="#FFD130"/>
            <stop offset="0.44" stop-color="#FFA028"/>
            <stop offset="1" stop-color="#FF8F28"/>
        </linearGradient>
        <linearGradient id="paint68_linear_1361_3042" x1="169.631" y1="247.777" x2="150.14" y2="247.777" gradientUnits="userSpaceOnUse">
            <stop offset="0.51" stop-color="#3B1992"/>
            <stop offset="1" stop-color="#7139FF"/>
        </linearGradient>
        <linearGradient id="paint69_linear_1361_3042" x1="173.982" y1="392.702" x2="248.01" y2="392.702" gradientUnits="userSpaceOnUse">
            <stop offset="0.33" stop-color="#C2C9EB"/>
            <stop offset="0.58" stop-color="#D5DAF1"/>
            <stop offset="1" stop-color="white"/>
        </linearGradient>
        <linearGradient id="paint70_linear_1361_3042" x1="190.594" y1="384.159" x2="212.959" y2="384.159" gradientUnits="userSpaceOnUse">
            <stop stop-color="#B9BFE8"/>
            <stop offset="1" stop-color="#D8DFF6"/>
        </linearGradient>
        <linearGradient id="paint71_linear_1361_3042" x1="184.279" y1="400.615" x2="198.546" y2="400.615" gradientUnits="userSpaceOnUse">
            <stop stop-color="#B9BFE8"/>
            <stop offset="1" stop-color="#CCD2FA"/>
        </linearGradient>
        <linearGradient id="paint72_linear_1361_3042" x1="218.427" y1="400.507" x2="204.72" y2="400.719" gradientUnits="userSpaceOnUse">
            <stop stop-color="#CCD2FA"/>
            <stop offset="1" stop-color="#B9BFE8"/>
        </linearGradient>
        <linearGradient id="paint73_linear_1361_3042" x1="219.817" y1="389.533" x2="229.549" y2="389.533" gradientUnits="userSpaceOnUse">
            <stop offset="0.4" stop-color="#B9BFE8"/>
            <stop offset="1" stop-color="#CCD2FA"/>
        </linearGradient>
        <linearGradient id="paint74_linear_1361_3042" x1="34.7165" y1="198.137" x2="100.797" y2="198.137" gradientUnits="userSpaceOnUse">
            <stop stop-color="#C4C9E4"/>
            <stop offset="0.254" stop-color="#CED2E8"/>
            <stop offset="0.677" stop-color="#E7E9F4"/>
            <stop offset="1" stop-color="white"/>
        </linearGradient>
        <linearGradient id="paint75_linear_1361_3042" x1="92.0846" y1="205.067" x2="26.0116" y2="205.068" gradientUnits="userSpaceOnUse">
            <stop offset="0.409" stop-color="#FFA028"/>
            <stop offset="0.496" stop-color="#FFA328"/>
            <stop offset="0.565" stop-color="#FFD130"/>
        </linearGradient>
        <linearGradient id="paint76_linear_1361_3042" x1="139.474" y1="363.264" x2="0.369775" y2="363.264" gradientUnits="userSpaceOnUse">
            <stop stop-color="#DAE0F5"/>
            <stop offset="0.327" stop-color="#DEE3F6"/>
            <stop offset="0.66" stop-color="#EAEEF9"/>
            <stop offset="0.996" stop-color="white"/>
            <stop offset="1" stop-color="white"/>
        </linearGradient>
        <linearGradient id="paint77_linear_1361_3042" x1="14.2932" y1="320.724" x2="8.52001" y2="330.322" gradientUnits="userSpaceOnUse">
            <stop stop-color="#7139FF"/>
            <stop offset="1" stop-color="#3B1992"/>
        </linearGradient>
        <linearGradient id="paint78_linear_1361_3042" x1="130.147" y1="399.363" x2="135.573" y2="389.83" gradientUnits="userSpaceOnUse">
            <stop stop-color="#BBC0E6"/>
            <stop offset="1" stop-color="#F6F6FB"/>
        </linearGradient>
        <linearGradient id="paint79_linear_1361_3042" x1="139.258" y1="400.982" x2="141.544" y2="398.026" gradientUnits="userSpaceOnUse">
            <stop stop-color="#362E93"/>
            <stop offset="1" stop-color="#807CFB"/>
        </linearGradient>
        <linearGradient id="paint80_linear_1361_3042" x1="17.2284" y1="335.212" x2="23.5637" y2="324.545" gradientUnits="userSpaceOnUse">
            <stop offset="0.074" stop-color="#A3A9D0"/>
            <stop offset="0.137" stop-color="#CED3F8"/>
            <stop offset="0.559" stop-color="#CED3F8"/>
            <stop offset="0.69" stop-color="#F6F6FB"/>
        </linearGradient>
        <linearGradient id="paint81_linear_1361_3042" x1="20.6391" y1="337.633" x2="28.5173" y2="327.61" gradientUnits="userSpaceOnUse">
            <stop offset="0.559" stop-color="#D1D7F3"/>
            <stop offset="0.69" stop-color="#F1F1F6"/>
        </linearGradient>
        <linearGradient id="paint82_linear_1361_3042" x1="19.0963" y1="336.742" x2="26.9745" y2="326.719" gradientUnits="userSpaceOnUse">
            <stop offset="0.559" stop-color="#D1D7F3"/>
            <stop offset="0.69" stop-color="#F1F1F6"/>
        </linearGradient>
        <linearGradient id="paint83_linear_1361_3042" x1="17.5503" y1="335.852" x2="25.429" y2="325.828" gradientUnits="userSpaceOnUse">
            <stop offset="0.559" stop-color="#D1D7F3"/>
            <stop offset="0.69" stop-color="#F1F1F6"/>
        </linearGradient>
    </defs>
</svg>
