<svg width="25" height="25" viewBox="0 0 25 25" fill="none" xmlns="http://www.w3.org/2000/svg">
    <path fill-rule="evenodd" clip-rule="evenodd" d="M19.4886 12.1165C19.4886 16.2179 16.173 19.5427 12.0829 19.5427C7.99289 19.5427 4.67726 16.2179 4.67726 12.1165C4.67726 8.01509 7.99289 4.69026 12.0829 4.69026C16.173 4.69026 19.4886 8.01509 19.4886 12.1165ZM16.6477 23.3385C15.2393 23.9152 13.6981 24.233 12.0829 24.233C5.40971 24.233 0 18.8082 0 12.1165C0 5.42474 5.40971 0 12.0829 0C18.7561 0 24.1659 5.42474 24.1659 12.1165C24.1659 14.4852 23.488 16.6951 22.3163 18.5619C21.7211 18.1926 21.0194 17.9794 20.2681 17.9794C18.1155 17.9794 16.3704 19.7293 16.3704 21.8879C16.3704 22.4005 16.4688 22.89 16.6477 23.3385Z" fill="white"/>
    <ellipse cx="20.2682" cy="21.888" rx="2.33863" ry="2.34513" fill="white"/>
</svg>